<svg width="42px" height="51px" viewBox="0 0 42 51" version="1.1" xmlns="http://www.w3.org/2000/svg" xmlns:xlink="http://www.w3.org/1999/xlink">
                   <g id="28-feb" stroke="none" stroke-width="1" fill="none" fill-rule="evenodd">
                       <g id="swipe-tutorial" transform="translate(-93.000000, -313.000000)" fill="#55BAC7" fill-rule="nonzero">
                           <g id="Group-12" transform="translate(64.000000, 194.000000)">
                               <g id="Group-11" transform="translate(22.000000, 26.000000)">
                                   <g id="Group-10">
                                       <g id="Group-8" transform="translate(7.000000, 87.000000)">
                                           <g id="481913" transform="translate(22.000000, 28.000000) scale(-1, 1) translate(-22.000000, -28.000000) ">
                                               <path d="M40.5207477,44 L32.2107477,44 C31.7103738,44 31.4514019,43.6689687 31.3637383,43.526375 C31.2760748,43.3837812 31.0950467,43.0029687 31.319972,42.5527812 L43.5075701,18.100625 C43.7879439,17.5361562 43.9378505,16.9033437 43.9378505,16.089875 C43.9378505,13.835 42.1095327,12.0000313 39.8607477,12.0000313 C38.3130093,12.0000313 36.9090654,12.8662812 36.2139252,14.2608125 L29.9795327,26.7686562 C28.922243,24.821375 26.7357944,23.7266562 24.52,24.061625 L13.9242056,25.697375 C12.3276636,25.9434687 10.943271,26.9552187 10.2228972,28.4034687 L4.90747664,39.0693135 C4.35448598,40.1777187 4.06242991,41.4189687 4.06242991,42.6581562 C4.06242991,45.7176875 5.75635514,48.46775 8.48420561,49.8359375 L17.8553271,54.5360937 C19.7653271,55.494125 21.9031776,56 24.0371028,56 C25.4370093,56 26.8233645,55.7870937 28.158972,55.368125 L42.2419626,50.9540937 C42.498972,50.873 42.7151402,50.690375 42.8357944,50.4472812 L43.5776636,48.959 C43.813271,48.485375 43.9378505,47.955125 43.9378505,47.42675 C43.9378505,45.537125 42.405514,44 40.5207477,44 Z M41.7941121,48.0654687 L41.2431341,49.1719062 L27.5631776,53.4600313 C24.6757009,54.3633135 21.4514019,54.1025937 18.7470093,52.7471562 L9.37588785,48.0469062 C7.32757009,47.0195937 6.05616822,44.955125 6.05616822,42.65825 C6.05616822,41.7275937 6.27616822,40.7959062 6.69093458,39.963875 L12.0063551,29.2978437 C12.4385981,28.4286875 13.27,27.8212812 14.2279439,27.6738125 L24.8237383,26.0380625 C26.2392523,25.8242187 27.6488785,26.5536875 28.2856075,27.8349687 L29.0897196,29.4472812 C29.4285047,30.125 30.5343925,30.125 30.8731776,29.4472812 L37.9973832,15.1552812 C38.3517757,14.4424062 39.0663551,14 39.8607477,14 C41.0095327,14 41.9441121,14.9375 41.9441121,16.2705313 C41.9441121,16.5937812 41.8681313,16.9170313 41.7241121,17.205125 L29.5356075,41.6591562 C29.0683178,42.5957187 29.118972,43.6874375 29.6680374,44.5780625 C30.2171028,45.4686875 31.1672897,45.9999687 32.2108411,45.9999687 L40.5208411,45.9999687 C41.313514,45.9999687 41.9441121,46.639625 41.9441121,47.42675 C41.9440187,47.6474375 41.8914953,47.868125 41.7941121,48.0654687 Z" id="Shape"></path>
                                               <path d="M3.05934579,17.0439687 C3.1411215,17.0439687 3.22485981,17.0342188 3.31363551,17.01275 L11.2816822,14.9688125 C11.6068224,14.8848125 11.8697196,14.641625 11.9786916,14.321375 C12.0857944,14.0010313 12.0254206,13.6475 11.8171028,13.3819063 L9.7571028,10.7520313 C13.3279439,8.33890625 17.574486,7.0000625 22.0000935,7.0000625 C25.5242056,7.0000625 28.8886916,7.81259375 32.0000935,9.4150625 C32.4868224,9.66509375 33.0924299,9.475625 33.3415888,8.98240625 C33.5946729,8.49115625 33.4,7.8876875 32.9113134,7.6356875 C29.5624299,5.91115625 25.7890654,5 22.0000935,5 C16.8073832,5 11.8365421,6.69040625 7.7711215,9.7109375 C7.74971963,9.7255625 7.72831776,9.74028125 7.70682243,9.756875 C7.70093458,9.76175 7.69514019,9.766625 7.68925234,9.7715 C5.60009346,11.337875 3.75037383,13.2568438 2.23560748,15.4794688 C2.00196262,15.82325 2.00392523,16.2763438 2.24336449,16.617125 C2.43233645,16.8887187 2.74,17.0439687 3.05934579,17.0439687 Z M8.15476636,11.9443437 L9.31351402,13.4111562 L5.64504673,14.3486562 C6.42186916,13.4775313 7.26102804,12.6738125 8.15476636,11.9443437 Z" id="Shape" transform="translate(17.757344, 11.021984) scale(-1, 1) rotate(18.000000) translate(-17.757344, -11.021984) "></path>
                                           </g>
                                       </g>
                                   </g>
                               </g>
                           </g>
                       </g>
                   </g>
                   </svg>