<svg width="48px" height="18px" viewBox="0 0 48 18" version="1.1" xmlns="http://www.w3.org/2000/svg" xmlns:xlink="http://www.w3.org/1999/xlink">
<defs>
<polygon id="path-1" points="0 0.056 47.937 0.056 47.937 17.863 0 17.863"></polygon>
</defs>
<g id="28-feb" stroke="none" stroke-width="1" fill="none" fill-rule="evenodd">
<g id="Artboard" transform="translate(-450.000000, -525.000000)">
<g id="cateye" transform="translate(450.000000, 525.000000)">
<path d="M43.675,2.839 C43.675,2.839 43.385,8.12 38.202,12.885 C35.362,15.495 30.315,16.412 30.315,16.412 C30.315,16.412 35.578,18.706 40.867,15.394 C44.77,12.951 43.675,2.84 43.675,2.84 M20.644,3.663 C20.644,3.663 21.21,9.036 16.027,13.801 C13.187,16.411 7.419,15.724 7.419,15.724 C7.419,15.724 12.546,19.531 17.836,16.219 C21.739,13.776 20.644,3.663 20.644,3.663" id="Shape" fill="#55BAC7" fill-rule="nonzero"></path>
<g id="Group" transform="translate(0.000000, 0.081000)">
<g id="Clipped">
<mask id="mask-2" fill="white">
<use xlink:href="#path-1"></use>
</mask>
<g id="a"></g>
<path d="M6.579,2.922 C10.011,1.862 14.306,3.05 14.306,3.05 C14.306,3.05 20.253,4.296 20.735,7.02 C21.07,9.223 19.617,15.276 16.569,16.39 C13.296,17.593 8.381,16.956 6.309,13.088 C4.239,9.218 2.79,4.088 6.579,2.922 M41.615,13.1 C39.544,16.961 34.628,17.605 31.355,16.401 C28.313,15.264 26.852,9.235 27.19,7.033 C27.671,4.291 33.619,3.061 33.619,3.061 C33.619,3.061 37.911,1.877 41.345,2.934 C45.135,4.088 43.679,9.235 41.615,13.1 M23.962,8.135 C25.159,8.167 25.535,9.007 26.195,10.557 C27.591,13.247 28.217,18.093 34.915,17.85 C41.608,17.605 43.244,12.854 43.244,12.854 L47.876,1.618 C47.967424,1.39952803 47.9544975,1.15133034 47.840873,0.943537597 C47.7272485,0.735744853 47.5252669,0.590925626 47.292,0.55 C36.175,-1.251 29.2,2.368 27.137,3.557 C26.1696538,4.09551846 25.0663541,4.34050313 23.962,4.262 C22.8576459,4.34050313 21.7543462,4.09551846 20.787,3.557 C18.724,2.368 11.749,-1.25 0.649,0.55 C0.413479342,0.589126972 0.208964169,0.734226209 0.094228964,0.943598444 C-0.0205062407,1.15297068 -0.0327560282,1.40343063 0.061,1.623 L4.698,12.86 C4.698,12.86 6.333,17.608 13.027,17.854 C19.724,18.099 20.35,13.247 21.73,10.557 C22.39,9.001 22.766,8.167 23.962,8.135" id="Shape" fill="#0F3B41" fill-rule="nonzero" mask="url(#mask-2)"></path>
</g>
</g>
</g>
</g>
</g>
</svg>