<svg width="48px" height="20px" viewBox="0 0 48 20" version="1.1" xmlns="http://www.w3.org/2000/svg" xmlns:xlink="http://www.w3.org/1999/xlink">
<defs>
<polygon id="path-1" points="0 19.848 48 19.848 48 0 0 0"></polygon>
</defs>
<g id="28-feb" stroke="none" stroke-width="1" fill="none" fill-rule="evenodd">
<g id="Artboard" transform="translate(-634.000000, -515.000000)">
<g id="rounded" transform="translate(634.000000, 514.000000)">
<path d="M21.364,10.596 C21.364,10.596 20.776,8.545 19.284,5.9 C17.792,3.255 16.758,1.866 16.012,1.509 C15.266,1.154 12.77,0.999 11.17,0.999 C9.57,0.999 7.078,1.221 6.518,1.306 C5.95596127,1.38236872 5.44547418,1.67381956 5.094,2.119 C4.738,2.577 3.162,5.069 2.586,6.289 C2.009,7.511 1.196,10.156 1.161,10.952 C1.127,11.749 1.449,12.664 1.789,13.36 C2.129,14.055 3.653,17.106 5.145,18.75 C6.637,20.395 6.965,20.293 7.428,20.417 C7.891,20.542 10.095,20.835 11.678,20.847 C12.9620996,20.8508879 14.2452121,20.7754107 15.52,20.621 C16.39,20.519 17.114,20.293 17.826,19.265 C18.538,18.237 19.227,17.129 19.736,16.077 C20.246,15.027 21.013,13.309 21.251,12.494 C21.488,11.681 21.601,11.308 21.364,10.596" id="Path" fill="#0F3B41" fill-rule="nonzero"></path>
<path d="M20.696,10.617 C20.696,10.617 20.147,8.703 18.756,6.234 C17.362,3.765 16.396,2.468 15.7,2.136 C15.004,1.803 12.675,1.661 11.18,1.661 C9.687,1.661 7.36,1.866 6.84,1.945 C6.31446401,2.01666536 5.8370916,2.28904 5.508,2.705 C5.176,3.133 3.705,5.459 3.168,6.598 C2.629,7.738 1.869,10.206 1.838,10.95 C1.806,11.693 2.106,12.548 2.424,13.197 C2.74,13.847 4.164,16.694 5.556,18.229 C6.949,19.764 7.256,19.67 7.687,19.785 C8.12,19.901 10.177,20.176 11.654,20.186 C12.8528456,20.189762 14.0507834,20.119629 15.241,19.976 C16.053,19.881 16.729,19.67 17.393,18.709 C18.058,17.75 18.703,16.716 19.176,15.734 C19.651,14.754 20.369,13.149 20.591,12.389 C20.811,11.63 20.917,11.282 20.696,10.617" id="Path" fill="#55BAC7" fill-rule="nonzero"></path>
<path d="M26.643,10.596 C26.643,10.596 27.231,8.545 28.722,5.9 C30.214,3.255 31.248,1.866 31.995,1.509 C32.741,1.154 35.235,0.999 36.835,0.999 C38.437,0.999 40.928,1.221 41.488,1.306 C42.0500387,1.38236872 42.5605258,1.67381956 42.912,2.119 C43.268,2.577 44.845,5.069 45.421,6.289 C45.997,7.511 46.811,10.156 46.845,10.952 C46.879,11.749 46.557,12.664 46.218,13.36 C45.878,14.055 44.353,17.106 42.861,18.75 C41.37,20.395 41.041,20.293 40.579,20.417 C40.115,20.542 37.911,20.835 36.329,20.847 C35.0445678,20.8508934 33.7611223,20.7754163 32.486,20.621 C31.616,20.519 30.892,20.293 30.18,19.265 C29.468,18.237 28.779,17.129 28.27,16.077 C27.762,15.027 26.994,13.309 26.756,12.494 C26.518,11.681 26.406,11.308 26.643,10.596" id="Path" fill="#0F3B41" fill-rule="nonzero"></path>
<path d="M27.31,10.617 C27.31,10.617 27.86,8.703 29.25,6.234 C30.643,3.765 31.61,2.468 32.306,2.136 C33.002,1.803 35.332,1.661 36.826,1.661 C38.319,1.661 40.646,1.866 41.167,1.945 C41.6918833,2.01695636 42.1685276,2.28932452 42.497,2.705 C42.83,3.133 44.3,5.459 44.839,6.598 C45.377,7.738 46.136,10.206 46.167,10.95 C46.2,11.693 45.9,12.548 45.583,13.197 C45.267,13.847 43.842,16.694 42.45,18.229 C41.056,19.764 40.75,19.67 40.318,19.785 C39.886,19.901 37.828,20.176 36.352,20.186 C35.1531554,20.1897265 33.9552198,20.1195937 32.765,19.976 C31.952,19.881 31.277,19.67 30.613,18.709 C29.948,17.75 29.305,16.716 28.829,15.734 C28.355,14.754 27.637,13.149 27.416,12.389 C27.195,11.63 27.088,11.282 27.311,10.617" id="Path" fill="#55BAC7" fill-rule="nonzero"></path>
<path d="M17.769,4.655 C17.6274297,4.40479632 17.4837579,4.15578752 17.338,3.908 C16.665,2.916 16.131,2.341 15.701,2.135 C15.004,1.802 12.675,1.661 11.181,1.661 C9.688,1.661 7.361,1.866 6.839,1.945 C6.31411668,2.01695636 5.8374724,2.28932452 5.509,2.705 C5.177,3.133 3.706,5.459 3.167,6.598 C2.629,7.738 1.87,10.206 1.837,10.95 C1.807,11.693 2.107,12.548 2.423,13.197 C2.581,13.52 3.015,14.39 3.582,15.372 C3.902,15.842 4.238,16.284 4.571,16.652 C5.963,18.185 6.269,18.092 6.701,18.207 C7.134,18.323 9.191,18.597 10.668,18.607 C11.8668571,18.6111801 13.0648207,18.5410457 14.255,18.397 C15.068,18.301 15.743,18.091 16.408,17.131 C17.073,16.171 17.716,15.136 18.191,14.156 C18.665,13.176 19.381,11.571 19.604,10.811 C19.826,10.051 19.931,9.703 19.709,9.039 C19.709,9.039 19.162,7.124 17.769,4.655 M42.878,3.258 C42.7565322,3.06991574 42.6294756,2.88550024 42.497,2.705 C42.1686661,2.28916362 41.6919516,2.01675535 41.167,1.945 C40.646,1.865 38.319,1.661 36.825,1.661 C35.332,1.661 33.002,1.803 32.305,2.136 C31.609,2.468 30.644,3.766 29.251,6.235 C27.859,8.703 27.311,10.618 27.311,10.618 C27.089,11.282 27.194,11.63 27.416,12.39 C27.638,13.15 28.355,14.754 28.829,15.735 C28.994,16.075 29.181,16.424 29.381,16.773 C29.461,16.893 29.544,17.013 29.626,17.131 C30.291,18.091 30.966,18.301 31.778,18.398 C32.591,18.492 33.888,18.618 35.365,18.608 C36.842,18.598 38.899,18.323 39.332,18.207 C39.765,18.091 40.07,18.186 41.462,16.652 C42.856,15.116 44.28,12.268 44.597,11.619 C44.913,10.969 45.214,10.115 45.182,9.371 C45.15,8.628 44.391,6.159 43.852,5.02 C43.635,4.559 43.264,3.904 42.878,3.258" id="Shape" fill="#FFFFFF" fill-rule="nonzero"></path>
<g id="Clipped" transform="translate(0.000000, 1.000000)">
<mask id="mask-2" fill="white">
<use xlink:href="#path-1"></use>
</mask>
<g id="a"></g>
<path d="M21.112,9.878 L26.964,9.878 L26.964,9.167 L21.112,9.167 L21.112,9.878 Z M1.288,10.58 C1.28692579,10.6541089 1.22710893,10.7139258 1.153,10.715 L0.136,10.715 C0.0615008476,10.7144641 0.00108567962,10.6544932 0,10.58 L0,10.06 C0,9.985 0.061,9.925 0.136,9.925 L1.153,9.925 C1.227,9.925 1.288,9.985 1.288,10.06 L1.288,10.58 Z M48,10.58 C47.9989143,10.6544932 47.9384992,10.7144641 47.864,10.715 L46.847,10.715 C46.7722801,10.7144506 46.711998,10.6537219 46.712,10.579 L46.712,10.059 C46.712,9.984 46.772,9.924 46.847,9.924 L47.864,9.924 C47.939,9.924 48,9.984 48,10.059 L48,10.579 L48,10.58 Z" id="Shape" fill="#0F3B41" fill-rule="nonzero" mask="url(#mask-2)"></path>
</g>
</g>
</g>
</g>
</svg>