<svg width="48px" height="18px" viewBox="0 0 48 18" version="1.1" xmlns="http://www.w3.org/2000/svg" xmlns:xlink="http://www.w3.org/1999/xlink">
<defs>
<polygon id="path-1" points="0 0.092 47.975 0.092 47.975 17.862 0 17.862"></polygon>
</defs>
<g id="28-feb" stroke="none" stroke-width="1" fill="none" fill-rule="evenodd">
<g id="Artboard" transform="translate(-450.000000, -460.000000)">
<g id="clubmaster" transform="translate(450.000000, 460.000000)">
<path d="M46.206,6.11 C46.206,6.11 43.453,10.991 40.002,13.117 C36.433,15.316 30.462,15.179 30.462,15.179 C30.462,15.179 37.736,20.589 43.17,15.329 C46.672,11.938 46.206,6.109 46.206,6.109 M20.83,6.751 C20.83,6.751 18.37,11.423 13.786,13.621 C8.524,16.145 4.466,15.179 4.466,15.179 C4.466,15.179 11.734,20.585 17.174,15.329 C20.398,12.213 20.83,6.751 20.83,6.751" id="Shape" fill="#55BAC7" fill-rule="nonzero"></path>
<g id="Group" transform="translate(0.000000, 0.045000)">
<g id="Clipped">
<mask id="mask-2" fill="white">
<use xlink:href="#path-1"></use>
</mask>
<g id="a"></g>
<path d="M2.823,4.368 C4.087,1.082 13.86,1.562 16.488,2.994 C17.636,3.541 19.781,5.038 20.49,6.587 C20.49,6.587 20.546,11.077 17.698,14.455 C14.853,17.839 9.573,18.475 5.705,15.776 C1.835,13.081 1.561,7.638 2.823,4.368 Z M42.296,15.766 C38.426,18.475 33.163,17.845 30.308,14.461 C27.448,11.083 27.514,6.592 27.514,6.592 C28.223,5.042 30.374,3.552 31.516,2.999 C34.152,1.568 43.919,1.102 45.182,4.374 C46.442,7.644 46.158,13.086 42.296,15.776 L42.296,15.766 Z M24,5.355 C24.809,5.355 25.825,5.485 25.886,5.826 C25.936,6.4 26.446,6.829 27.031,6.791 C27.349,11.509 30.137,18.254 37.393,17.845 C45.911,17.205 46.553,9.7 46.581,7.855 C46.5853779,7.62736692 46.7723358,7.44576345 47,7.448 L47.224,7.448 C47.454,7.448 47.64,7.264 47.64,7.036 L47.64,4.56 C47.674,4.232 47.766,3.911 47.907,3.613 C47.9524101,3.50929072 47.9755749,3.39721377 47.975,3.284 L47.975,1.64 C47.973703,1.26131604 47.7254108,0.927825558 47.363,0.818 C46.247,0.478 43.69,0.05 39.799,0.095 C34.622,0.15 30.313,0.257 26.963,4.55 C26.0199969,4.16304753 25.0070192,3.97577434 23.988,4 C22.9690155,3.97620884 21.9561261,4.1634657 21.013,4.55 C17.664,0.257 13.365,0.165 8.176,0.095 C4.271,0.051 1.721,0.477 0.615,0.818 C0.24528329,0.927826924 -0.00610127213,1.27036394 -9.54775538e-17,1.656 L-9.54775538e-17,3.301 C-9.54775538e-17,3.412 0.024,3.524 0.069,3.63 C0.211,3.928 0.301,4.248 0.337,4.578 L0.337,7.053 C0.337,7.281 0.524,7.465 0.757,7.465 L0.977,7.465 C1.205,7.465 1.393,7.643 1.397,7.872 C1.446,9.7 2.087,17.204 10.607,17.845 C17.862,18.255 20.649,11.509 20.967,6.791 C21.557,6.829 22.07,6.401 22.12,5.826 C22.174,5.486 23.191,5.375 24,5.355 Z" id="Shape" fill="#0F3B41" fill-rule="nonzero" mask="url(#mask-2)"></path>
</g>
</g>
</g>
</g>
</g>
</svg>