<svg width="48px" height="18px" viewBox="0 0 48 18" version="1.1" xmlns="http://www.w3.org/2000/svg" xmlns:xlink="http://www.w3.org/1999/xlink">
<defs>
<polygon id="path-1" points="0 0.045 47.912 0.045 47.912 17.863 0 17.863"></polygon>
</defs>
<g id="28-feb" stroke="none" stroke-width="1" fill="none" fill-rule="evenodd">
<g id="Artboard" transform="translate(-539.000000, -461.000000)">
<g id="aviator" transform="translate(539.000000, 461.000000)">
<path d="M46.608,5.433 C46.608,5.433 45.298,9.823 41.528,12.233 C37.629,14.726 31.227,14.363 31.227,14.363 C31.227,14.363 38.042,21.596 44.989,14.74 C47.771,11.994 46.609,5.433 46.609,5.433 M21.703,5.25 C21.703,5.25 17.628,10.495 12.621,12.987 C6.874,15.849 3.772,15.321 3.772,15.321 C3.772,15.321 10.425,20.929 16.322,14.923 C21.569,9.579 21.702,5.251 21.702,5.251" id="Shape" fill="#55BAC7" fill-rule="nonzero"></path>
<g id="Group" transform="translate(0.000000, 0.092000)">
<g id="Clipped">
<mask id="mask-2" fill="white">
<use xlink:href="#path-1"></use>
</mask>
<g id="a"></g>
<path d="M2.736,3.062 C3.961,1.591 5.938,0.784 8.611,0.636 C8.611,0.636 9.125,0.601 9.921,0.601 C12.195,0.601 17.741,0.861 20.388,3.305 C21.598,4.478 21.666,5.755 20.638,8.155 C20.258,9.045 16.728,16.861 9.808,17.263 L9.218,17.263 C3.714,17.263 1.676,12.243 1.336,9.293 C1.12,7.489 1.194,4.909 2.736,3.063 L2.736,3.062 Z M46.595,9.322 C46.259,12.287 44.221,17.292 38.713,17.292 L38.122,17.292 C31.223,16.867 27.672,9.049 27.315,8.161 C26.286,5.761 26.355,4.484 27.565,3.311 C30.194,0.867 35.758,0.607 38.03,0.607 C38.826,0.607 39.332,0.636 39.337,0.642 C42.012,0.778 43.99,1.591 45.215,3.068 C46.729,4.909 46.802,7.489 46.594,9.321 L46.595,9.322 Z M23.962,1.318 L24.832,1.318 C26.508,1.261 28.564,1.101 30.358,0.93 C30.3832324,0.927211021 30.4084958,0.934972166 30.4278104,0.951446381 C30.447125,0.967920596 30.458774,0.991643535 30.46,1.017 C30.463,1.064 30.44,1.104 30.398,1.117 C29.209703,1.4843702 28.1110112,2.09536004 27.172,2.911 C26.6801006,3.36113627 26.321371,3.93780195 26.135,4.578 C25.4141879,4.48885679 24.6882737,4.44743325 23.962,4.454 C23.2355265,4.44546279 22.5092815,4.48488179 21.788,4.572 C21.603246,3.9313192 21.2446585,3.35432564 20.752,2.905 C19.8131378,2.09014863 18.7147997,1.47984727 17.527,1.113 C17.4766712,1.09421347 17.4501778,1.03901902 17.467,0.988 C17.4830829,0.947826124 17.522765,0.922173064 17.566,0.924 C19.355,1.094 21.411,1.254 23.093,1.313 L23.883,1.313 L23.962,1.318 L23.962,1.318 Z M23.962,5.194 C24.65,5.186 25.34,5.224 26.025,5.308 C26.054,6.378 26.315,7.433 26.789,8.388 C27.184,9.309 30.843,17.404 38.089,17.851 L38.713,17.851 C44.6,17.851 46.775,12.519 47.133,9.373 C47.2417864,8.42745205 47.2417864,7.47254795 47.133,6.527 L47.589,6.527 C47.769,6.527 47.912,6.379 47.912,6.197 L47.912,5.724 C47.9138831,5.63712874 47.880686,5.55316258 47.8199064,5.49106583 C47.7591269,5.42896907 47.6758917,5.39397959 47.589,5.394 L46.918,5.394 C46.6864632,4.40784415 46.2360055,3.48642224 45.6,2.698 C44.276,1.102 42.173,0.219 39.344,0.079 C39.344,0.079 38.82,0.045 38.008,0.045 C36.2864134,0.0395593204 34.5676116,0.183768694 32.871,0.476 L32.871,0.26 C32.8674405,0.218485188 32.8475242,0.180088046 32.8156379,0.153266089 C32.7837517,0.126444132 32.7425111,0.113397537 32.701,0.117 L32.699,0.117 C31.872,0.207 27.918,0.642 24.843,0.746 L23.146,0.746 C20.075,0.642 16.121,0.208 15.292,0.117 C15.2503252,0.113116705 15.208825,0.126034947 15.1767171,0.152885446 C15.1446091,0.179735945 15.1245518,0.218295638 15.121,0.26 L15.121,0.476 C13.4233477,0.184120881 11.7035515,0.040246876 9.981,0.046 C9.165,0.046 8.663,0.075 8.646,0.079 C5.82,0.22 3.714,1.102 2.39,2.697 C1.74843755,3.48877361 1.29381326,4.41511332 1.06,5.407 L0.326,5.407 C0.238846837,5.40671605 0.155254365,5.44155564 0.0940996617,5.50365118 C0.0329449586,5.56574673 -0.000614418573,5.64986133 0.001,5.737 L0.001,6.209 C0.001,6.392 0.143,6.539 0.326,6.539 L0.783,6.539 C0.673,7.486 0.673,8.441 0.783,9.386 C1.138,12.533 3.313,17.863 9.2,17.863 L9.827,17.863 C17.087,17.417 20.73,9.32 21.123,8.4 C21.5992849,7.44303777 21.8607154,6.39356164 21.889,5.325 C22.575,5.235 23.269,5.192 23.962,5.195 L23.962,5.194 Z" id="Shape" fill="#0F3B41" fill-rule="nonzero" mask="url(#mask-2)"></path>
</g>
</g>
</g>
</g>
</g>
</svg>