<svg width="48px" height="18px" viewBox="0 0 48 18" version="1.1" xmlns="http://www.w3.org/2000/svg" xmlns:xlink="http://www.w3.org/1999/xlink">';
<defs>
<polygon id="path-1" points="0 0.027 47.955 0.027 47.955 17.862 0 17.862"></polygon>
</defs>';
<g id="28-feb" stroke="none" stroke-width="1" fill="none" fill-rule="evenodd">
<g id="Artboard" transform="translate(-738.000000, -517.000000)">
<g id="oval" transform="translate(738.000000, 517.000000)">
<path d="M29.629,14.36 C29.755,14.528 29.884,14.695 30.022,14.858 C33.058,18.426 39.675,17.605 41.699,16.629 C43.723,15.654 45.254,13.06 45.721,10.057 C45.994,8.302 46.103,6.681 45.685,5.296 C44.871,8.399 41.695,14.927 29.629,14.359 M18.317,15.133 C21.337,11.583 21.259,6.348 21.259,6.348 C21.2734268,5.90464674 21.2191168,5.46173291 21.098,5.035 C20.488,7.934 17.588,15.509 4.348,14.784 C4.995,15.729 5.818,16.469 6.703,16.894 C8.716,17.864 15.297,18.682 18.317,15.133" id="Shape" fill="#55BAC7" fill-rule="nonzero"></path>
<g id="Group" transform="translate(0.000000, 0.112000)">
<g id="Clipped">
<mask id="mask-2" fill="white">
<use xlink:href="#path-1"></use>
</mask>
<g id="a"></g>
<path d="M2.865,4.036 C4.198,2.366 8.11,1.216 9.54,1.137 C9.54,1.137 15.267,0.301 19.537,4.099 C20.664,5.419 21.491,6.514 20.517,10.189 C19.645,13.464 15.83,18.662 8.504,16.569 C1.958,14.702 1.605,5.615 2.87,4.037 L2.865,4.037 L2.865,4.036 Z M39.441,16.57 C32.126,18.662 28.295,13.464 27.428,10.19 C26.448,6.514 27.298,5.424 28.406,4.099 C32.667,0.296 38.401,1.159 38.401,1.159 C39.834,1.239 43.74,2.383 45.074,4.059 C46.407,5.735 45.987,14.701 39.441,16.569 L39.441,16.57 Z M23.972,5.557 C24.478,5.557 25.662,5.73 25.702,6.489 C25.761,7.452 26.647,17.985 36.313,17.86 C45.983,17.74 46.176,9.677 46.925,8.454 C47.672,7.228 48.161,5.843 47.87,4.812 C47.578,3.782 47.043,4.065 45.272,2.552 C43.497,1.035 35.466,-2.738 26.833,3.487 C25.895362,3.27189523 24.9347905,3.17315117 23.973,3.193 C23.011,3.173 22.049,3.272 21.107,3.487 C12.478,-2.738 4.436,1.035 2.673,2.552 C0.913,4.065 0.338,3.81 0.075,4.841 C-0.188,5.868 0.267,7.281 1.013,8.482 C1.763,9.677 1.958,17.793 11.632,17.86 C21.305,17.929 22.184,7.452 22.243,6.484 C22.283,5.724 23.466,5.58 23.973,5.557 L23.972,5.557 Z" id="Shape" fill="#0F3B41" fill-rule="nonzero" mask="url(#mask-2)"></path>
</g>
</g>
</g>
</g>
</g>
</svg>