<?xml version="1.0" encoding="UTF-8"?>
<svg width="48px" height="48px" viewBox="0 0 48 48" version="1.1" xmlns="http://www.w3.org/2000/svg" xmlns:xlink="http://www.w3.org/1999/xlink">
    <!-- Generator: Sketch 53 (72520) - https://sketchapp.com -->
    <title>icon/chevron/right</title>
    <desc>Created with Sketch.</desc>
    <defs>
        <path d="M15,0 L33,0 C41.2842712,-1.52179594e-15 48,6.71572875 48,15 L48,33 C48,41.2842712 41.2842712,48 33,48 L15,48 C6.71572875,48 1.01453063e-15,41.2842712 0,33 L0,15 C-1.01453063e-15,6.71572875 6.71572875,1.52179594e-15 15,0 Z M28.72,25.504 L29.84,24.384 L23.056,17.6 L20.816,19.856 L25.296,24.384 L20.8,28.928 L23.056,31.184 L28.72,25.504 Z" id="path-1"></path>
    </defs>
    <g id="Page-1" stroke="none" stroke-width="1" fill="none" fill-rule="evenodd">
        <g id="2.2-OTP" transform="translate(-16.000000, -26.000000)">
            <g id="icon/chevron/right" transform="translate(40.000000, 50.000000) scale(-1, 1) translate(-40.000000, -50.000000) translate(16.000000, 26.000000)">
                <mask id="mask-2" fill="white">
                    <use xlink:href="#path-1"></use>
                </mask>
                <use id="Shape" fill="#FFFFFF" xlink:href="#path-1"></use>
            </g>
        </g>
    </g>
</svg>