<?xml version="1.0" encoding="UTF-8"?>
<svg width="188px" height="147px" viewBox="0 0 188 147" version="1.1" xmlns="http://www.w3.org/2000/svg" xmlns:xlink="http://www.w3.org/1999/xlink">
    <!-- Generator: Sketch 53 (72520) - https://sketchapp.com -->
    <title>lookr-empty@1.5x</title>
    <desc>Created with Sketch.</desc>
    <defs>
        <linearGradient x1="0.0418254486%" y1="50.0117741%" x2="100%" y2="50.0117741%" id="linearGradient-1">
            <stop stop-color="#808080" stop-opacity="0.25" offset="0%"></stop>
            <stop stop-color="#808080" stop-opacity="0.12" offset="54%"></stop>
            <stop stop-color="#808080" stop-opacity="0.1" offset="100%"></stop>
        </linearGradient>
    </defs>
    <g id="Page-1" stroke="none" stroke-width="1" fill="none" fill-rule="evenodd">
        <g id="5.5-Empty" transform="translate(-94.000000, -263.000000)" fill-rule="nonzero">
            <g id="lookr-empty" transform="translate(94.000000, 263.000000)">
                <ellipse id="Oval" fill="#55BAC7" opacity="0.1" cx="66.0380218" cy="137.932519" rx="32.7465875" ry="6.20749367"></ellipse>
                <path d="M109.257567,20.7288608 C97.2225915,20.3120506 85.7603561,16.4230633 74.8150742,12.1693671 C63.8697923,7.91567089 53.0286449,3.20422785 41.2818991,0.950848101 C33.7265678,-0.498683544 25.0852621,-0.705227848 18.9989713,3.34378481 C13.139545,7.25137975 11.2465282,13.9780253 10.2293571,20.2245949 C9.46322453,24.9248734 9.01321464,29.8726329 11.1107814,34.2733291 C12.5686647,37.3286962 15.1534322,39.8965443 16.9423145,42.823519 C23.1662117,53.0055949 18.7665282,65.562 12.023818,75.504038 C8.86259149,80.1671013 5.18999011,84.6217595 2.74840752,89.5806835 C0.306824926,94.5396076 -0.821918892,100.240975 1.31469832,105.313405 C3.43086053,110.337456 8.47580613,114.103633 13.9410089,116.755215 C25.040633,122.142114 38.115094,123.682823 50.8734322,124.55738 C79.1069041,126.488848 107.489139,125.653367 135.796993,124.814165 C146.27367,124.505278 156.794975,124.19081 167.100574,122.570089 C172.824253,121.669481 178.732028,120.240418 182.888111,116.79057 C188.16178,112.412203 189.469041,104.998937 185.934045,99.5096962 C180.005816,90.2989367 163.619505,88.0120633 159.470861,78.1295696 C157.191058,72.6887089 159.532226,66.6300759 162.847794,61.585557 C169.958694,50.761519 181.876518,41.2660633 182.503185,28.8957342 C182.934599,20.3995063 177.205341,11.8902532 168.346469,7.8691519 C159.061761,3.65453165 146.184411,4.1848481 139.337567,11.1608354 C132.280593,18.3359241 119.884866,21.0991519 109.257567,20.7288608 Z" id="Path" fill="#55BAC7" opacity="0.1"></path>
                <path d="M99.6939268,67.3111139 L93.9981405,63.4686456 L93.9981405,63.4686456 L96.8711375,59.1888987 L81.8274184,57.9887089 L76.4217211,62.1716962 L69.6548368,58.3757468 L64.0111177,59.0549241 L63.9441741,57.5663165 C63.8743166,56.014439 63.7184953,54.467633 63.4774283,52.9330253 C63.5016024,52.4678354 63.5183383,51.9337975 63.5164787,51.3532405 C63.5164787,48.9063418 63.1854797,45.663038 61.7313155,43.5008354 L62.0660336,40.4901266 L59.3510979,37.2803165 C59.7870953,36.4112665 60.2842247,35.5743001 60.8387339,34.7757342 C60.9317112,34.6417595 61.0246884,34.5115063 61.1251039,34.3849747 C64.6489416,34.1300506 67.4289614,31.2309873 67.4289614,27.6862405 C67.4289614,27.5224937 67.4289614,27.3587468 67.410366,27.1968608 C67.410366,27.1317342 67.3973492,27.0647468 67.389911,26.9996203 C67.7339268,27.1856962 68.0816617,27.3717722 68.4293966,27.5578481 C68.4944807,27.6508861 68.5688625,27.7439241 68.6506825,27.8537089 L68.6506825,27.8537089 L68.6674184,27.8741772 L68.7715529,28.0025696 L68.8050247,28.0416456 C68.8422156,28.0863038 68.8812661,28.1291013 68.9203165,28.1737595 L68.9463501,28.2035316 C69.044906,28.3133165 69.1490406,28.424962 69.2606133,28.5347468 C69.2738958,28.5455623 69.2863292,28.5573818 69.2978042,28.5701013 L69.43727,28.7003544 L69.4763205,28.7357089 C69.5953314,28.8417722 69.7217804,28.9441139 69.8482295,29.0408734 L69.8891395,29.0706456 L70.0490603,29.1804304 L70.1011276,29.2139241 C70.1624926,29.2511392 70.2257171,29.2902152 70.2870821,29.3255696 L70.3093966,29.3385949 C70.3819189,29.3776709 70.4563007,29.4148861 70.5306825,29.4502405 L70.5678734,29.4651266 C70.6310979,29.4924177 70.6930828,29.5184684 70.7538279,29.5432785 L70.8114738,29.5637468 C70.8765579,29.5860759 70.9397824,29.6065443 71.006726,29.6251519 L71.047636,29.6363165 C71.129456,29.6567848 71.211276,29.6735316 71.2949555,29.686557 L71.3042532,29.686557 C71.3830475,29.6993115 71.462527,29.7073889 71.542275,29.7107468 L71.5962018,29.7107468 C71.6674356,29.714478 71.7388157,29.714478 71.8100495,29.7107468 L71.8565381,29.7107468 C71.9457353,29.7056067 72.0345375,29.6950429 72.122453,29.6791139 C72.5385155,29.6243732 72.9380049,29.4809707 73.2939664,29.2585823 C73.3845942,29.1979387 73.4649491,29.123185 73.5319881,29.0371519 C73.9038971,28.5496329 73.4947972,28.0155949 73.4947972,28.0155949 L73.4947972,28.0155949 C73.3497527,27.6694937 72.4088229,27.4257342 72.4088229,27.4257342 C72.4088229,27.4257342 69.4335509,26.1827468 69.4335509,25.1928228 C69.4335509,24.2028987 68.6897329,19.0672025 61.0116716,17.8930633 C61.0116716,17.8930633 56.0169337,17.6120886 54.6129773,20.2878608 L54.5832245,20.6004684 C54.1704055,20.8591139 53.8282493,21.3782658 53.4210089,21.5308481 C53.2450662,21.568662 53.0753895,21.6313142 52.9170722,21.7169241 L52.9170722,21.6815696 L52.9170722,21.6815696 C52.8700597,21.7227142 52.8315281,21.7726485 52.80364,21.8285696 C52.7161636,22.0027389 52.6637237,22.1924044 52.6492977,22.3867975 C52.6074041,22.624261 52.5250025,22.8527442 52.4056973,23.0622532 C52.3724348,23.1217858 52.3351576,23.1789815 52.2941246,23.233443 L52.2941246,23.233443 L52.2625124,23.2836835 C52.4784017,23.3005189 52.6951833,23.2654284 52.8947577,23.1813418 C52.8633085,23.4360974 52.8008606,23.6860519 52.7088032,23.9256456 C52.9502103,23.9334546 53.1739977,23.7996762 53.281543,23.5832658 L53.281543,23.5683797 L53.3057171,23.5348861 C53.3524786,23.448747 53.3910777,23.3584161 53.4210089,23.2650759 L53.4005539,23.2874051 C53.4377448,23.1664557 53.4712166,23.0436456 53.5121266,22.924557 C53.5308698,22.857477 53.5617537,22.7944075 53.6032443,22.738481 C53.7038974,22.6369457 53.8467663,22.5892917 53.9881701,22.6100886 L53.9119288,24.2233671 L53.9454006,24.2233671 C53.9006106,24.3407186 53.8458641,24.4540182 53.7817606,24.5620253 C53.5177052,24.99 53.0379426,25.2821392 52.8612859,25.7510506 C52.7851171,25.9772115 52.7560069,26.2165778 52.7757468,26.4544177 C52.7757468,26.5939747 52.7924827,26.7353924 52.80364,26.8749494 L52.80364,26.8637848 C52.8296736,27.2359367 52.8371118,27.589481 52.6362809,27.8890633 C52.4986746,28.0937468 52.2773887,28.2481899 52.2011474,28.4807848 C52.1800571,28.545597 52.1706134,28.6136366 52.1732542,28.6817468 C52.1881737,28.88566 52.2307125,29.0865993 52.2997033,29.2790506 C52.3005096,29.2753728 52.3005096,29.2715639 52.2997033,29.2678861 C52.3460818,29.4094545 52.3569383,29.560267 52.3313155,29.7070253 C52.247636,30.0791772 51.7957666,30.3899241 51.8180811,30.7453291 C51.8168053,30.7920713 51.8237284,30.8386755 51.8385361,30.8830253 C51.9254773,31.0566207 52.0760257,31.1899364 52.2587933,31.2551772 C52.5454932,31.4183164 52.874766,31.4909594 53.2034421,31.4635823 C53.326631,31.4413108 53.4457478,31.4005337 53.5567557,31.3426329 C53.4265875,31.6422152 53.2927003,31.9380759 53.1569535,32.2190506 C53.1364985,32.2637089 53.114184,32.3083671 53.0918694,32.3530253 C53.0918694,32.3530253 51.9426706,31.5845316 51.2899703,33.1512911 C51.0994324,33.47688 50.9631423,33.83134 50.8864491,34.2007595 C50.8537493,34.3485338 50.8076909,34.4930273 50.7488427,34.6324557 C50.4590763,35.1233331 50.0254001,35.5131171 49.5066667,35.7489114 C48.1752324,36.3592405 42.7974283,43.071 42.7025915,44.8089494 C42.6560497,45.4873718 42.5414204,46.1593883 42.3604352,46.8148481 C41.9370985,48.3584239 41.8283279,49.9714315 42.0405935,51.5579241 C42.1070406,52.0706512 42.2171543,52.5767584 42.3697329,53.0707215 C42.9406133,54.8068101 43.32182,58.0463924 43.32182,58.0463924 L43.9391889,63.6696076 C43.9162705,64.4457156 43.949831,65.2224636 44.0396044,65.9936962 C43.4092186,66.7138101 40.8783778,69.7152152 41.8453412,70.5320886 C42.5891592,71.1759114 43.8908408,71.0698481 44.6216419,70.9377342 C44.0061325,72.4616962 43.0373096,75.1114177 42.909001,76.9312405 C42.7230465,79.6237595 43.2269832,83.1908354 44.024728,84.5603544 C44.8224728,85.9298734 47.4816222,89.4429873 47.4816222,89.4429873 C47.4816222,89.4429873 47.3570326,94.2623544 48.3072601,96.0133291 C49.2574876,97.7643038 49.6405539,101.396506 49.6405539,101.396506 C49.6405539,101.396506 50.5275569,104.463038 50.0831256,105.590658 C49.6386944,106.718278 50.9069041,107.656101 49.5754698,108.405987 C48.2440356,109.155873 46.5406924,126.057152 46.5406924,126.057152 C46.5406924,126.057152 45.8545203,137.134253 46.5406924,137.698063 C46.5774103,137.724774 46.6166469,137.747832 46.6578437,137.766911 L46.6578437,141.48843 C46.6578437,141.48843 46.1818002,142.269949 48.1175865,142.428114 C49.4434421,142.534177 53.2015826,142.774215 55.4311771,142.913772 L57.1586944,143.021696 C57.1586944,143.021696 61.2496934,143.836709 63.0571711,143.021696 C64.8646489,142.206684 68.0686449,142.225291 67.5926014,140.072392 C67.5294782,139.779411 67.4449518,139.49146 67.3397033,139.210861 C66.8171711,137.874835 65.9301682,137.722253 64.2956281,137.350101 C64.2007913,137.329633 64.1096736,137.311025 64.0259941,137.296139 C62.3040554,136.996557 61.7387537,137.798544 60.7736499,136.754658 C59.9349951,135.85219 57.2646884,134.841797 56.3553709,134.521747 C56.3776855,134.454759 56.4055786,134.389633 56.4278932,134.320785 C56.170402,134.277072 55.9309141,134.160156 55.738002,133.983987 L58.2018991,134.140291 L59.6690801,134.231468 C59.6690801,134.231468 63.1464293,134.925532 64.6898516,134.231468 C66.233274,133.537405 68.9482097,133.556013 68.5428289,131.726886 C68.4894308,131.477635 68.4179591,131.232607 68.3289812,130.993747 C67.88455,129.858684 67.1295747,129.734013 65.7404946,129.419544 C65.6605341,129.402797 65.5861523,129.386051 65.5117705,129.373025 C64.0483086,129.118101 63.568546,129.799139 62.7484866,128.913418 C62.0455786,128.157949 59.8271414,127.311304 59.0293966,127.022886 C59.0293966,126.609797 58.4715331,126.021797 58.1200791,125.431937 C57.7072601,124.743456 58.4696736,122.333772 58.4696736,122.333772 L58.9048071,112.335911 C59.0705121,112.262055 59.2457941,112.211942 59.4254797,112.187051 C59.4254797,112.187051 61.3928783,110.307684 60.9484471,108.305506 C60.8578932,107.69994 60.8106647,107.088677 60.8071217,106.47638 C61.4542433,105.875354 62.3449654,104.987772 62.5978635,104.440709 C63.0106825,103.549405 62.5978635,99.2305823 62.5978635,99.2305823 L62.5978635,82.7163418 L65.8892582,83.0494177 L68.8756874,83.356443 L69.7850049,83.449481 L72.7714342,83.7509241 L79.6350148,84.4449873 L85.8198615,83.2727089 L88.4957468,82.7665823 L93.9981405,81.724557 L93.9981405,68.2526582 L99.6939268,67.3111139 Z M54.3935509,22.6696329 L54.0104847,22.6286962 C54.1369337,22.6342785 54.270821,22.6584684 54.3935509,22.6696329 Z" id="Shape" fill="url(#linearGradient-1)"></path>
                <path d="M86.3442532,76.0585443 C84.4847082,78.7212911 77.7996439,77.3108354 77.7996439,77.3108354 L72.6189515,72.4598354 L71.9216222,71.8029873 L73.091276,69.3170127 C73.091276,69.3170127 73.463185,69.4193544 74.1010089,69.6017089 C77.4500495,70.5748861 87.9137092,73.8200506 86.3442532,76.0585443 Z" id="Path" fill="#EFB7B9"></path>
                <path d="M74.0972898,69.6017089 C73.8685658,70.3981139 73.2418991,71.5908608 72.6189515,72.4598354 L71.9216222,71.8029873 L73.091276,69.3170127 C73.091276,69.3170127 73.4669041,69.4193544 74.0972898,69.6017089 Z" id="Path" fill="#000000" opacity="0.1"></path>
                <path d="M56.3293373,41.5675063 C56.3293373,41.5675063 51.5540257,43.6869114 51.7883284,48.8914557 C51.9569176,52.2444696 52.3220161,55.5846932 52.8817409,58.8948987 C52.8817409,58.8948987 51.9054797,66.7268354 55.9704451,68.7457595 C60.0354105,70.7646835 63.79727,72.424481 63.79727,72.424481 C63.79727,72.424481 70.1569139,73.1092405 70.9472206,73.3920759 C71.7375272,73.6749114 74.207003,69.3505063 73.7514144,68.6769114 C73.2958259,68.0033165 67.4587141,66.591 66.7148961,65.4671013 C65.9710781,64.3432025 64.250999,63.6491392 64.250999,63.6491392 C64.250999,63.6491392 62.4751335,62.5736203 62.3542631,61.6023038 C62.2333927,60.6309873 62.701998,59.9071519 62.8210089,59.481038 C62.9400198,59.0549241 63.2412661,54.9407848 63.2412661,54.9407848 C63.2412661,54.9407848 65.2458556,40.2966076 56.3293373,41.5675063 Z" id="Path" fill="#DCE6F2"></path>
                <path d="M59.4812661,58.6809114 C59.4812661,58.6809114 52.930089,59.7787595 53.5641939,62.0730759 C53.5641939,62.0730759 55.9425519,59.5964051 59.4812661,58.6809114 Z" id="Path" fill="#000000" opacity="0.1"></path>
                <path d="M59.5314738,59.6094304 C59.5314738,59.6094304 55.9295351,62.5512911 56.6343027,62.7020127 C57.3390702,62.8527342 59.5314738,59.6094304 59.5314738,59.6094304 Z" id="Path" fill="#000000" opacity="0.1"></path>
                <path d="M61.2627102,60.6347089 C61.2627102,60.6347089 60.2976063,62.6126962 60.8908012,62.4787215 C61.483996,62.3447468 61.2627102,60.6347089 61.2627102,60.6347089 Z" id="Path" fill="#000000" opacity="0.1"></path>
                <path d="M74.3390307,69.8119747 L73.941088,69.6984684 C74.0545203,69.3263165 74.0861325,69.0248734 73.9931553,68.8853165 C73.5375668,68.2117215 67.7041741,66.8012658 66.9622156,65.6755063 C66.2202572,64.5497468 64.4983185,63.8575443 64.4983185,63.8575443 C64.4983185,63.8575443 62.722453,62.7820253 62.6015826,61.8107089 C62.4807122,60.8393924 62.9493175,60.115557 63.0683284,59.689443 C63.1873393,59.2633291 63.4885856,55.1473291 63.4885856,55.1473291 C63.4885856,55.1473291 65.4875964,40.5050127 56.5710781,41.7759114 C56.5710781,41.7759114 51.7957666,43.8971772 52.0282097,49.1017215 C52.1968629,52.4548163 52.5625859,55.7950724 53.1234817,59.1051646 C53.1234817,59.1051646 52.1472206,66.9371013 56.212186,68.9560253 C60.2771513,70.9749494 64.0390109,72.6347468 64.0390109,72.6347468 C64.0390109,72.6347468 70.3967953,73.3176456 71.1889614,73.6023418 C71.4883482,73.7102658 72.0294758,73.1538987 72.5594461,72.3891266 L72.8606924,72.6701013 L78.0413848,77.5192405 C78.0413848,77.5192405 84.7264491,78.931557 86.5859941,76.2688101 C88.1573096,74.0284557 77.6955094,70.7832911 74.3390307,69.8119747 Z" id="Path" fill="#000000" opacity="0.1"></path>
                <path d="M53.5809298,22.0332532 C53.398887,22.0688627 53.2245289,22.136258 53.0658358,22.2323544 C52.8798813,22.3867975 52.8798813,22.6510253 52.8333927,22.8817595 C52.778782,23.2027275 52.6515724,23.506957 52.4614837,23.7712025 C52.6730843,23.7867363 52.8853414,23.7516559 53.0807122,23.6688608 C53.0488833,23.9235456 52.9864468,24.1734546 52.8947577,24.4131646 C53.1314191,24.4191884 53.3496728,24.2859667 53.4526212,24.0726456 C53.5510142,23.8629654 53.6288594,23.6442333 53.6850643,23.419519 C53.7025309,23.3523084 53.7328418,23.2891194 53.7743225,23.233443 C53.9454006,23.0306203 54.2633828,23.1217975 54.5274382,23.1478481 C54.9749446,23.1856052 55.4077314,22.9776179 55.6580415,22.6045063 C55.9388328,22.1783924 55.9555687,21.0879873 55.2861325,20.9726203 C54.5869436,20.8572532 54.1518101,21.8211266 53.5809298,22.0332532 Z" id="Path" fill="#965D7B"></path>
                <g id="Group" opacity="0.1" transform="translate(52.439169, 22.143038)" fill="#000000">
                    <path d="M0.608071217,0.318189873 C0.624807122,0.227012658 0.635964392,0.132113924 0.656419387,0.0409367089 L0.656419387,0.0409367089 C0.479762611,0.195379747 0.470464886,0.457746835 0.423976261,0.690341772 C0.400553708,0.824542575 0.363800399,0.956068217 0.314263106,1.08296203 C0.460680887,0.849438666 0.560458353,0.589721439 0.608071217,0.318189873 L0.608071217,0.318189873 Z" id="Path"></path>
                    <path d="M0.667576657,1.85517722 C0.760176526,1.61575531 0.822641332,1.36573291 0.853531157,1.11087342 C0.667342317,1.18929347 0.465761744,1.22429086 0.264055391,1.21321519 C0.205341481,1.34408528 0.133702874,1.46875553 0.0502077151,1.58536709 C0.261063707,1.60169352 0.472760356,1.56723845 0.667576657,1.48488608 C0.636686831,1.73974556 0.574222025,1.98976797 0.481622156,2.22918987 C0.718156971,2.23474048 0.936174757,2.10166278 1.03948566,1.88867089 C1.08581358,1.80409416 1.12320647,1.71491625 1.15105836,1.62258228 C1.04017363,1.77765299 0.857859033,1.86536148 0.667576657,1.85517722 L0.667576657,1.85517722 Z" id="Path"></path>
                    <path d="M2.30025717,0.589860759 C2.03620178,0.563810127 1.71636004,0.472632911 1.5452819,0.675455696 C1.50455615,0.73158577 1.4743163,0.79462661 1.45602374,0.861531646 C1.43928783,0.909911392 1.42441147,0.960151899 1.41139466,1.01039241 C1.58805143,0.870835443 1.87442136,0.945265823 2.11430267,0.969455696 C2.56158618,1.00600406 2.99379245,0.79829574 3.24490603,0.426113924 C3.30126905,0.335759668 3.34329767,0.23721037 3.36949555,0.133974684 C3.11089757,0.454242529 2.71022308,0.625076201 2.30025717,0.589860759 Z" id="Path"></path>
                </g>
                <polygon id="Path" fill="#DCE6F2" points="59.1781602 37.4012658 62.0139664 40.8138987 61.6439169 44.2581646 58.2167755 38.8898734"></polygon>
                <polygon id="Path" fill="#000000" opacity="0.1" points="62.0121068 40.8138987 61.6643719 44.053481 61.6420574 44.2581646 58.549634 39.4127468 58.2167755 38.8898734 58.3134718 38.7391519 59.1763007 37.4012658 59.3678338 37.632"></polygon>
                <path d="M63.4848665,32.781 C62.5253412,33.0563924 61.6085856,34.0016582 60.8108408,35.1497468 C60.2716466,35.9418918 59.7894281,36.7714015 59.3678338,37.632 C59.105638,38.1567342 58.8750544,38.661 58.6835213,39.1001392 L58.549634,39.4127468 C58.2260732,40.177519 58.0456973,40.6892278 58.0456973,40.6892278 C58.0456973,40.6892278 50.7004946,35.1627722 51.8627102,34.7906203 C52.2532146,34.6659494 52.7664491,33.8286076 53.2741048,32.773557 L53.3373294,32.6395823 C53.6590307,31.9622658 53.9751533,31.2067975 54.2559446,30.4959873 C54.830544,29.0352911 55.2563798,27.7662532 55.2563798,27.7662532 C55.2563798,27.7662532 66.4136499,31.9436582 63.4848665,32.781 Z" id="Path" fill="#EFB7B9"></path>
                <path d="M67.8789713,27.4555063 C67.8789713,27.4555063 69.5748764,30.5257595 71.852819,30.1070886 C74.1307616,29.6884177 73.1935509,28.4584557 73.1935509,28.4584557 L67.8789713,27.4555063 Z" id="Path" fill="#444053"></path>
                <path d="M64.5931553,133.732785 C63.0906429,134.419405 59.6932542,133.732785 59.6932542,133.732785 L58.2614045,133.643468 C56.4018595,133.52438 53.2889812,133.323418 52.1881306,133.234101 C50.5814837,133.101987 50.9757072,132.443278 50.9757072,132.443278 L50.9757072,128.463114 L58.7709199,126.486987 C58.7709199,126.486987 61.852186,127.542038 62.6964194,128.463114 C63.4978833,129.341392 63.9664886,128.665937 65.3964787,128.919 C65.4671414,128.932025 65.5415232,128.946911 65.6196241,128.965519 C66.977092,129.276266 67.7134718,129.399076 68.1486053,130.524835 C68.236045,130.761347 68.3062712,131.003879 68.3587339,131.250532 C68.7603956,133.062911 66.0938081,133.049886 64.5931553,133.732785 Z" id="Path" fill="#A36468"></path>
                <path d="M68.1486053,130.524835 C67.8692793,130.699486 67.5756595,130.850127 67.2709001,130.975139 C66.2481503,131.44219 65.2756083,132.011582 64.2417013,132.452582 C63.2077943,132.893582 62.0939268,133.208051 60.9744807,133.124316 C60.388724,133.081519 59.7899505,132.938241 59.2302275,133.105709 C58.8840737,133.239451 58.5580493,133.420415 58.2614045,133.643468 C56.4018595,133.52438 53.2889812,133.323418 52.1881306,133.234101 C50.5814837,133.101987 50.9757072,132.443278 50.9757072,132.443278 L50.9757072,131.978089 C51.0333531,131.978089 51.0984372,131.961342 51.172819,131.955759 C51.5576458,131.949605 51.9408653,132.006811 52.3071414,132.125089 C53.114184,132.344658 53.9175074,132.560506 54.72455,132.776354 C54.8586998,132.269807 55.1948422,131.840609 55.6543225,131.58919 C56.1149573,131.344504 56.6319537,131.225761 57.1531157,131.244949 C58.4045895,131.261696 59.5891197,131.855278 60.8387339,131.914823 C61.1880956,131.946966 61.53982,131.887986 61.8596241,131.743633 C62.0307023,131.658038 62.1813254,131.533367 62.3486845,131.438468 C62.6165241,131.308818 62.8995091,131.213178 63.1910584,131.153772 C64.0105181,130.949655 64.815093,130.689785 65.5991691,130.375975 C65.8223145,130.288519 66.0826508,130.130354 66.0528981,129.892177 C66.0138477,129.575848 65.5173492,129.538633 65.387181,129.248354 C65.3406207,129.14224 65.3461205,129.020478 65.4020574,128.919 C65.4727201,128.932025 65.5471019,128.946911 65.6252028,128.965519 C66.977092,129.276266 67.7134718,129.399076 68.1486053,130.524835 Z" id="Path" fill="#000000" opacity="0.1"></path>
                <path d="M63.0051039,142.441139 C61.2385361,143.248709 57.2405143,142.441139 57.2405143,142.441139 L55.5576261,142.342519 C53.3782394,142.202962 49.7074975,141.970367 48.4113947,141.860582 C46.5202374,141.704278 46.9851236,140.930203 46.9851236,140.930203 L46.9851236,136.239228 L56.1582591,133.913278 C56.1582591,133.913278 59.7843719,135.154405 60.7773689,136.239228 C61.7201583,137.271949 62.2650049,136.477405 63.9553314,136.775127 C64.0390109,136.790013 64.1264095,136.80862 64.2175272,136.829089 C65.8148764,137.201241 66.6814243,137.340797 67.1927992,138.665658 C67.2963318,138.94381 67.3790007,139.229297 67.4401187,139.519747 C67.9012859,141.652177 64.7716716,141.63543 63.0051039,142.441139 Z" id="Path" fill="#A36468"></path>
                <path d="M67.1890801,138.665658 C66.8604983,138.871014 66.5152706,139.048409 66.1570326,139.195975 C64.953907,139.744899 63.8084273,140.414772 62.5922849,140.933924 C61.3761424,141.453076 60.0651632,141.821506 58.7467458,141.724747 C58.0587141,141.674506 57.3539466,141.501456 56.7012463,141.702418 C56.2922727,141.861797 55.907392,142.07722 55.5576261,142.342519 C53.3782394,142.202962 49.7074975,141.970367 48.4113947,141.860582 C46.5202374,141.704278 46.9851236,140.930203 46.9851236,140.930203 L46.9851236,140.383139 C47.0621187,140.370558 47.1396979,140.361863 47.2175668,140.357089 C47.6705787,140.348809 48.1218049,140.416097 48.5527201,140.55619 L51.3959644,141.322823 C51.556035,140.725185 51.954833,140.219801 52.4986746,139.925392 C53.0406664,139.636277 53.6496363,139.496295 54.2633828,139.519747 C55.7361424,139.540215 57.1289416,140.238 58.5998417,140.308709 C59.0094781,140.3461 59.4218446,140.277541 59.7973887,140.109608 C60.0000791,140.007266 60.1692977,139.860266 60.3738477,139.750481 C60.6883435,139.596371 61.0215089,139.483784 61.3649852,139.415544 C62.3239592,139.173395 63.2657368,138.867553 64.1840554,138.500051 C64.4462512,138.395848 64.7530762,138.209772 64.7177448,137.930658 C64.6712562,137.558506 64.0873591,137.513848 63.9330168,137.171468 C63.8803196,137.046295 63.8871578,136.903968 63.9516123,136.78443 C64.0352918,136.799316 64.1226904,136.817924 64.2138081,136.838392 C65.8111573,137.195658 66.6777052,137.340797 67.1890801,138.665658 Z" id="Path" fill="#000000" opacity="0.1"></path>
                <path d="M59.0070821,110.251861 L58.5105836,121.943013 C58.5105836,121.943013 57.7667656,124.330367 58.1702868,125.013266 C58.5738081,125.696165 59.2544016,126.377203 59.0070821,126.780987 C58.7597626,127.184772 55.7844906,131.550114 54.8231058,129.87543 C53.8617211,128.200747 52.9133531,120.943785 52.9133531,120.943785 L53.8003561,111.980506 L59.0070821,110.251861 Z" id="Path" fill="#444053"></path>
                <path d="M61.1604352,81.1235316 L62.5402176,82.9694051 L62.5402176,99.024038 C62.5402176,99.024038 62.9437389,103.303785 62.5402176,104.187646 C62.1366963,105.071506 60.0911968,106.839228 60.0911968,106.839228 L58.3711177,98.0006203 L58.7430267,88.6503038 L61.1604352,81.1235316 Z" id="Path" fill="#444053"></path>
                <path d="M59.0070821,110.251861 L58.5105836,121.943013 C58.5105836,121.943013 57.7667656,124.330367 58.1702868,125.013266 C58.5738081,125.696165 59.2544016,126.377203 59.0070821,126.780987 C58.7597626,127.184772 55.7844906,131.550114 54.8231058,129.87543 C53.8617211,128.200747 52.9133531,120.943785 52.9133531,120.943785 L53.8003561,111.980506 L59.0070821,110.251861 Z" id="Path" fill="#000000" opacity="0.1"></path>
                <path d="M61.1604352,81.1235316 L62.5402176,82.9694051 L62.5402176,99.024038 C62.5402176,99.024038 62.9437389,103.303785 62.5402176,104.187646 C62.1366963,105.071506 60.0911968,106.839228 60.0911968,106.839228 L58.3711177,98.0006203 L58.7430267,88.6503038 L61.1604352,81.1235316 Z" id="Path" fill="#000000" opacity="0.1"></path>
                <path d="M62.5402176,74.2759367 L62.5402176,82.9601013 L60.9912166,89.7202405 C60.9912166,89.7202405 60.4947181,106.033519 60.9279921,108.017089 C61.3612661,110.000658 59.4403561,111.863278 59.4403561,111.863278 C59.4403561,111.863278 58.3246291,111.987949 58.3246291,112.855063 C58.3246291,113.722177 56.4650841,116.20443 56.4650841,116.20443 L56.5264491,121.042405 C56.5264491,121.042405 57.3334916,130.098722 56.0931751,131.83481 C54.8528586,133.570899 56.5264491,133.820241 56.5264491,133.820241 C54.9774481,138.905696 47.5392681,137.727835 46.8679723,137.169608 C46.1966766,136.61138 46.8679723,125.632899 46.8679723,125.632899 C46.8679723,125.632899 48.5304055,108.886063 49.832087,108.141759 C51.1337685,107.397456 49.8953116,106.467076 50.3285856,105.35062 C50.7618595,104.234165 49.8953116,101.195544 49.8953116,101.195544 C49.8953116,101.195544 49.5234026,97.5968354 48.5936301,95.8607468 C47.6638576,94.1246582 47.7865875,89.3480886 47.7865875,89.3480886 C47.7865875,89.3480886 45.1832245,85.8740506 44.4096538,84.5101139 C43.6360831,83.1461772 43.137725,79.6107342 43.3236795,76.9424051 C43.4501286,75.1393291 44.396637,72.5137975 44.99727,71.0028608 C45.2854995,70.2790253 45.4937685,69.8101139 45.4937685,69.8101139 L45.6704253,69.8566329 L55.8272601,72.517519 L62.5402176,74.2759367 Z" id="Path" fill="#444053"></path>
                <path d="M63.4848665,32.781 C62.5253412,33.0563924 61.6085856,34.0016582 60.8108408,35.1497468 L60.6025717,35.1497468 C58.2224624,35.151431 56.0233723,33.8786749 54.8379822,31.8134051 C54.5946116,31.3929812 54.398773,30.9467517 54.2540851,30.482962 C54.8286845,29.0222658 55.2545203,27.7532278 55.2545203,27.7532278 C55.2545203,27.7532278 66.4136499,31.9436582 63.4848665,32.781 Z" id="Path" fill="#000000" opacity="0.1"></path>
                <path d="M67.2504451,28.1291013 C67.2549612,30.9192191 65.5189885,33.4156783 62.9029388,34.3811419 C60.2868891,35.3466054 57.346727,34.5758924 55.5397048,32.4509966 C53.7326826,30.3261008 53.4428298,27.2986063 54.8138081,24.8690506 C55.0153348,24.5088233 55.2507008,24.1686281 55.5167161,23.8530759 C55.9552293,23.3303091 56.4706361,22.8773082 57.0452621,22.5096076 C59.019675,21.2541023 61.5082392,21.1294355 63.5980928,22.1813378 C65.6879464,23.2332402 67.0714669,25.3068737 67.2411474,27.6415823 C67.2448665,27.8053291 67.2504451,27.9672152 67.2504451,28.1291013 Z" id="Path" fill="#EFB7B9"></path>
                <path d="M61.6643719,44.053481 L61.6420574,44.2581646 L58.549634,39.4201899 C58.2260732,40.184962 58.0456973,40.6966709 58.0456973,40.6966709 C58.0456973,40.6966709 50.7004946,35.1627722 51.8627102,34.7906203 C52.2532146,34.6659494 52.7664491,33.8286076 53.2741048,32.773557 L53.3373294,32.6395823 C53.8765974,34.2472785 57.0099308,37.4608101 58.3134718,38.7484557 C58.464095,38.8973165 58.5886845,39.0201266 58.6853808,39.109443 L58.8843521,39.295519 L58.9884866,39.3997215 C59.4626706,39.8891013 61.463541,42.0475823 61.6643719,44.053481 Z" id="Path" fill="#000000" opacity="0.1"></path>
                <path d="M63.9757864,60.4691013 L63.6373492,71.3675696 L63.5778437,73.3083418 C63.5778437,73.3083418 59.5686647,72.9361899 55.8272601,72.5268228 C52.8147972,72.1974684 49.975272,71.8420633 49.5382789,71.6336582 C48.9804154,71.3712911 47.784728,71.1684684 46.8419387,71.0400759 C46.112997,70.9414557 45.5402572,70.8893544 45.5402572,70.8893544 C45.5402572,70.8893544 45.3264095,70.9526203 44.99727,71.0121646 C44.2794857,71.1424177 43.0187141,71.248481 42.2841939,70.6102405 C41.3451236,69.7933671 43.8127399,66.8254557 44.4282493,66.1127848 L44.563996,65.9583418 L44.3315529,63.8091646 L43.7272008,58.2361899 C43.7272008,58.2361899 43.3552918,55.0263797 42.7974283,53.3051772 C42.6482844,52.8158158 42.5406689,52.3147347 42.475727,51.8072658 C42.268453,50.2352421 42.3746336,48.6376977 42.7881306,47.1069873 C42.9647965,46.4565632 43.0769121,45.7902864 43.1228487,45.1178354 C43.2158259,43.3966329 48.4690406,36.7444177 49.7707221,36.1396709 C50.3562772,35.8664308 50.8274577,35.3962596 51.1021563,34.8110886 C51.1928444,34.627096 51.2609045,34.4327794 51.3048467,34.2323924 C51.8627102,31.8134051 53.2741048,32.773557 53.2741048,32.773557 C53.6144016,34.6659494 58.8824926,39.6751139 58.8824926,39.6751139 L58.9866271,39.7793165 C59.5091592,40.3152152 61.8373096,42.830962 61.6718101,44.9782785 C61.6387396,45.7774924 61.758014,46.5757002 62.0232641,47.3302785 C63.0948311,50.7065753 63.7108305,54.2109909 63.8549159,57.7505316 L63.9757864,60.4691013 Z" id="Path" fill="#DCE6F2"></path>
                <path d="M56.5115727,47.527519 C56.5115727,47.527519 55.2098912,50.6908101 54.2336301,51.202519 C53.2573689,51.7142278 56.976459,52.2817595 56.5115727,47.527519 Z" id="Path" fill="#000000" opacity="0.1"></path>
                <path d="M57.4878338,53.4354304 C57.4878338,53.4354304 54.5125618,53.8075823 54.5125618,54.3658101 C54.5125618,54.924038 57.4878338,53.4354304 57.4878338,53.4354304 Z" id="Path" fill="#000000" opacity="0.1"></path>
                <path d="M60.6025717,57.0639114 C60.6025717,57.0639114 56.2791296,66.2746709 55.0704253,66.5537848 C53.8617211,66.8328987 60.6025717,57.0639114 60.6025717,57.0639114 Z" id="Path" fill="#000000" opacity="0.1"></path>
                <path d="M58.8006726,40.1421646 L55.2247676,41.6977595 L50.9087636,35.1739367 C50.9994517,34.9899441 51.0675118,34.7956275 51.111454,34.5952405 C51.6693175,32.1762532 53.0807122,33.1364051 53.0807122,33.1364051 C53.4210089,35.0287975 58.6890999,40.037962 58.6890999,40.037962 L58.8006726,40.1421646 Z" id="Path" fill="#000000" opacity="0.1"></path>
                <path d="M58.9866271,39.7700127 L55.4107221,41.3256076 L51.0947181,34.8017848 C51.1854062,34.6177922 51.2534663,34.4234756 51.2974085,34.2230886 C51.855272,31.8041013 53.2666667,32.7642532 53.2666667,32.7642532 C53.6069634,34.6566456 58.8750544,39.6658101 58.8750544,39.6658101 L58.9866271,39.7700127 Z" id="Path" fill="#DCE6F2"></path>
                <path d="M63.5778437,73.3083418 C63.5778437,73.3083418 59.5686647,72.9361899 55.8272601,72.5268228 L62.5402176,74.2852405 L62.5402176,76.3320759 C62.2464095,76.5981646 61.9916518,76.7358608 61.8261523,76.6651519 C61.0525816,76.339519 54.7394263,75.3161013 54.7394263,75.3161013 C54.7394263,75.3161013 51.0724036,73.4553418 47.1152918,71.2224304 C47.019241,71.1691846 46.9261286,71.1107961 46.83636,71.047519 C46.3749604,70.7340438 45.9773851,70.3355774 45.6648467,69.8733797 C44.9340455,68.8146076 44.5770129,67.4543924 44.4226706,66.1202278 C44.3359019,65.3556194 44.3035883,64.5858039 44.3259743,63.8166076 C44.345142,62.9444143 44.424673,62.0745977 44.563996,61.2134051 C44.1812985,57.8778819 43.9950222,54.5227194 44.0061325,51.1653038 C44.0526212,45.9551772 48.9339268,44.0944177 48.9339268,44.0944177 C57.9062315,43.3035949 55.1243521,57.817519 55.1243521,57.817519 C55.1243521,57.817519 54.6055391,61.9111899 54.4642136,62.3298608 C54.3228882,62.7485316 53.8152324,63.4463165 53.8840356,64.4232152 C53.9528388,65.4001139 55.6673393,66.5686709 55.6673393,66.5686709 C55.6673393,66.5686709 57.3409298,67.3539114 58.030821,68.5168861 C58.5328981,69.3746962 61.7945401,70.5376709 63.6373492,71.3675696 L63.5778437,73.3083418 Z" id="Path" fill="#000000" opacity="0.1"></path>
                <path d="M66.5828684,23.9982152 C66.5862927,24.3047033 66.5228314,24.6082468 66.3969139,24.8876582 C66.3015844,25.1156613 66.1910006,25.3369733 66.0659149,25.5500886 C65.870203,25.9421105 65.5924112,26.2873559 65.2514342,26.5623418 C64.8218793,26.8693671 64.2788922,26.954962 63.7637982,27.0796329 C63.2487043,27.2043038 62.7131553,27.4034051 62.4193472,27.8425443 C62.2601153,28.1248437 62.1536217,28.4338139 62.1050841,28.7543165 C62.0558234,29.074543 61.9280476,29.3775696 61.7331751,29.6363165 C61.5244677,29.8961568 61.1665583,29.9818663 60.862908,29.8447215 C60.7073892,29.7398085 60.5894574,29.5878966 60.5263304,29.4111646 C60.3143422,28.9329494 60.2604154,28.4026329 60.1748764,27.8872025 C60.0893373,27.3717722 59.9684669,26.8414557 59.6523442,26.4265063 C59.3362216,26.011557 58.7764985,25.7380253 58.28,25.8999114 C57.9442138,26.0292655 57.6756163,26.2899752 57.536182,26.6218861 C57.3987699,26.9507367 57.3043916,27.2959739 57.2553907,27.6490253 C57.0248071,28.9118608 56.7526937,30.1672532 56.4390504,31.4152025 C56.4294815,31.4663591 56.4085062,31.5146975 56.3776855,31.5566203 C56.3282488,31.605927 56.2615258,31.6339689 56.191731,31.6347722 C55.7751929,31.6905949 55.3753907,31.3984557 54.9551335,31.4300886 C54.9118289,31.4329748 54.8688798,31.4398263 54.8268249,31.450557 C53.4349606,29.029999 53.7031412,25.9970588 55.4981207,23.8586582 L55.5315925,23.8493544 C55.811151,23.7500493 56.0651989,23.5898946 56.2754105,23.380443 C56.5438463,23.111645 56.7924383,22.8237119 57.0192285,22.5189114 L57.1679921,22.3328354 C57.5954195,21.8175777 58.0822875,21.3547511 58.6184372,20.9540127 C58.7647892,20.8340345 58.932669,20.7430929 59.1130762,20.6860633 C59.2674671,20.655966 59.4256937,20.6509397 59.5816815,20.6711772 C60.2238729,20.74832 60.8713083,20.7725913 61.5174679,20.7437468 C61.9677089,20.6729251 62.4215045,20.6269569 62.8767953,20.6060506 C64.0538872,20.6395443 65.0580415,21.4713038 65.8018595,22.3830759 C66.2016617,22.8501266 66.5586944,23.3878861 66.5828684,23.9982152 Z" id="Path" fill="#000000" opacity="0.1"></path>
                <path d="M53.9454006,25.0458228 C53.6869238,25.4700759 53.220178,25.7584937 53.0453808,26.2236835 C52.7887636,26.8991392 53.2220376,27.7402025 52.824095,28.3430886 C52.6920673,28.5459114 52.4745005,28.6966329 52.4001187,28.9292278 C52.2736696,29.3218481 52.619545,29.740519 52.5302868,30.1443038 C52.4410287,30.5480886 51.9091988,30.8886076 52.0505242,31.2830886 C52.1340407,31.4551292 52.2805378,31.5883954 52.4596241,31.6552405 C52.7413921,31.8169819 53.065702,31.8890257 53.3893966,31.8617848 C53.8970524,31.7780506 54.2745401,31.2793671 54.789634,31.2421519 C55.2080317,31.2123797 55.6078338,31.5026582 56.0243719,31.4486962 C56.0941823,31.4462656 56.1605404,31.417713 56.2103264,31.3686835 C56.2419269,31.327214 56.2629858,31.278683 56.2716914,31.2272658 C56.584095,29.980557 56.8568282,28.7251646 57.0898912,27.4610886 C57.1373803,27.1079357 57.2311647,26.7625837 57.3688229,26.4339494 C57.5093361,26.1027773 57.7775599,25.8424303 58.1126409,25.7119747 C58.6091395,25.5519494 59.167003,25.8236203 59.4849852,26.2385696 C59.8029674,26.653519 59.9238378,27.1838354 60.0093769,27.6992658 C60.0949159,28.2146962 60.1488427,28.7450127 60.3589713,29.2232278 C60.4228197,29.4005889 60.5413335,29.5530632 60.6974085,29.6586456 C60.9763403,29.8205316 61.3519683,29.6921392 61.565816,29.4502405 C61.7617235,29.1913909 61.889597,28.8874929 61.937725,28.5663797 C61.9862382,28.2464584 62.0927403,27.9380944 62.2519881,27.6564684 C62.5457962,27.2173291 63.0832047,27.0182278 63.5964392,26.893557 C64.1096736,26.7688861 64.6508012,26.6814304 65.0840752,26.3744051 C65.4245963,26.0997095 65.702327,25.7551747 65.8985559,25.3640127 C66.1737685,24.8839367 66.4303858,24.3629241 66.4080712,23.8102785 C66.3838971,23.2073924 66.0268645,22.6696329 65.6456578,22.2007215 C64.9018398,21.2889494 63.8958259,20.4571899 62.7187339,20.425557 C62.2633092,20.444613 61.8094083,20.490592 61.3594065,20.5632532 C60.7131986,20.5923316 60.0656928,20.5674352 59.4236202,20.4888228 C59.2674923,20.4701352 59.1094127,20.4757846 58.9550148,20.5055696 C58.7743976,20.560766 58.6067853,20.6519054 58.4622354,20.773519 C57.9255621,21.1735905 57.4380727,21.63579 57.0099308,22.150481 C56.733874,22.516753 56.4344851,22.864818 56.1136301,23.1925063 C55.9033327,23.4022907 55.6493513,23.5630388 55.3698121,23.6632785 C55.1838576,23.7153797 54.9979031,23.6781646 54.8212463,23.7358481 C54.2726805,23.9088987 54.2001583,24.6252911 53.9454006,25.0458228 Z" id="Path" fill="#965D7B"></path>
                <path d="M71.852819,30.1052278 C70.365183,30.3787595 69.1323046,29.1748481 68.4498516,28.2965696 C68.2402496,28.0298364 68.0494933,27.7488002 67.8789713,27.4555063 L72.9852819,28.4193797 L73.1916914,28.4584557 C73.1916914,28.4584557 74.1307616,29.6884177 71.852819,30.1052278 Z" id="Path" fill="#000000" opacity="0.1"></path>
                <g id="Group" opacity="0.1" transform="translate(51.881306, 23.445570)" fill="#000000">
                    <path d="M0.648981207,6.16655696 C0.669791496,5.92320326 0.632836047,5.6783729 0.541127596,5.45202532 C0.541127596,5.47063291 0.524391691,5.48924051 0.518813056,5.5078481 C0.438852621,5.75718987 0.546706231,6.01583544 0.615509397,6.27448101 C0.630286107,6.23973187 0.641500822,6.20357196 0.648981207,6.16655696 L0.648981207,6.16655696 Z" id="Path"></path>
                    <path d="M1.09155292,3.12049367 C1.07242184,3.37779936 1.07740235,3.63633213 1.10642928,3.89270886 C1.12549517,3.63540139 1.12051478,3.37687471 1.09155292,3.12049367 L1.09155292,3.12049367 Z" id="Path"></path>
                    <path d="M14.006093,1.38068354 C13.8103811,1.77270548 13.5325892,2.11795085 13.1916123,2.39293671 C12.7620574,2.69996203 12.2209298,2.78555696 11.7039763,2.91022785 C11.1870227,3.03489873 10.6533333,3.234 10.3595252,3.67313924 C10.2005581,3.95555781 10.0940816,4.26447832 10.0452621,4.58491139 C9.99682748,4.90593833 9.86898466,5.20976333 9.67335312,5.46877215 C9.45950544,5.71067089 9.08387735,5.84092405 8.8049456,5.67717722 C8.64887056,5.57159485 8.53035682,5.41912053 8.46650841,5.24175949 C8.25637982,4.7635443 8.20059347,4.23508861 8.11691395,3.71779747 C8.03323442,3.20050633 7.90864491,2.67205063 7.59252226,2.25710127 C7.2763996,1.8421519 6.71667656,1.56862025 6.22017804,1.73050633 C5.88474589,1.86041402 5.61633658,2.12094109 5.47636004,2.45248101 C5.33870175,2.78111538 5.24491735,3.12646738 5.19742829,3.47962025 C4.96560501,4.7436962 4.69287174,5.99908861 4.37922849,7.24579747 C4.37052288,7.29721466 4.34946395,7.34574567 4.3178635,7.38721519 C4.26807752,7.43624463 4.2017194,7.46479726 4.131909,7.46722785 C3.71537092,7.52118987 3.31556874,7.23091139 2.89717112,7.26068354 C2.38207715,7.29789873 2.00458952,7.79658228 1.49693373,7.8784557 C1.17311907,7.907516 0.848268559,7.83535208 0.567161227,7.67191139 C0.437910189,7.61626615 0.321925281,7.53381868 0.226864491,7.43001266 C0.138708096,7.55632993 0.113347258,7.71613897 0.158061325,7.86356962 C0.239969428,8.03680857 0.387035604,8.17059241 0.567161227,8.23572152 C0.848268559,8.39916221 1.17311907,8.47132612 1.49693373,8.44226582 C2.00458952,8.36039241 2.38207715,7.86170886 2.89717112,7.82449367 C3.31556874,7.79472152 3.71537092,8.085 4.131909,8.03103797 C4.2017194,8.02860738 4.26807752,8.00005476 4.3178635,7.95102532 C4.34946395,7.9095558 4.37052288,7.86102478 4.37922849,7.80960759 C4.69163205,6.56910127 4.96436531,5.31370886 5.19742829,4.04343038 C5.24491735,3.6902775 5.33870175,3.3449255 5.47636004,3.01629114 C5.61633658,2.68475122 5.88474589,2.42422414 6.22017804,2.29431646 C6.71667656,2.13243038 7.27454006,2.40596203 7.59252226,2.82091139 C7.91050445,3.23586076 8.03137488,3.76617722 8.11691395,4.28160759 C8.20245302,4.79703797 8.25637982,5.32735443 8.46650841,5.80556962 C8.53035682,5.98293065 8.64887056,6.13540497 8.8049456,6.24098734 C9.08387735,6.40287342 9.45950544,6.27448101 9.67335312,6.03258228 C9.86898466,5.77357346 9.99682748,5.46974846 10.0452621,5.14872152 C10.0940816,4.82828845 10.2005581,4.51936794 10.3595252,4.23694937 C10.6533333,3.79781013 11.1907418,3.60056962 11.7039763,3.47403797 C12.2172107,3.34750633 12.7583383,3.26377215 13.1916123,2.95674684 C13.5325892,2.68176098 13.8103811,2.33651561 14.006093,1.94449367 C14.2813056,1.46627848 14.5379228,0.945265823 14.5156083,0.392620253 C14.5119491,0.32156432 14.5045003,0.250754629 14.4932938,0.180493671 C14.4035756,0.606384897 14.2385865,1.01282575 14.006093,1.38068354 L14.006093,1.38068354 Z" id="Path"></path>
                </g>
                <path d="M66.4043521,24.8820759 C66.8812206,25.7304906 67.1638563,26.6742842 67.2318497,27.6453038 C65.5749951,26.7149241 64.0166963,25.6933671 63.2301088,25.337962 C61.8596241,24.7183291 56.7347181,24.8113671 54.8082295,24.8690506 C55.0097561,24.5088233 55.2451222,24.1686281 55.5111375,23.8530759 C55.9513452,23.3298746 56.4686577,22.8768521 57.0452621,22.5096076 C58.5885315,21.529541 60.4668391,21.2281458 62.2389704,21.6762197 C64.0111017,22.1242937 65.5208769,23.2823475 66.4136499,24.8783544 L66.4043521,24.8820759 Z" id="Path" fill="#000000" opacity="0.1"></path>
                <path d="M72.3177052,29.3162658 C71.4232641,29.5916582 69.9635213,29.059481 68.4498516,28.2965696 C68.2402496,28.0298364 68.0494933,27.7488002 67.8789713,27.4555063 L72.9852819,28.4193797 C73.3237191,28.6501139 73.4092582,28.9794684 72.3177052,29.3162658 Z" id="Path" fill="#000000" opacity="0.1"></path>
                <path d="M60.9986548,18.4308228 C60.9986548,18.4308228 56.1173492,18.1517089 54.7450049,20.8032911 L54.5237191,23.1534304 L54.1518101,23.1124937 L54.0774283,24.7108861 C54.0774283,24.7108861 61.5379228,24.3852532 63.2356874,25.1518861 C64.933452,25.918519 70.2089812,29.7814557 72.3232839,29.1301899 C74.4375865,28.4789241 72.1373294,27.8741772 72.1373294,27.8741772 C72.1373294,27.8741772 69.2271414,26.6404937 69.2271414,25.6728987 C69.2271414,24.7053038 68.505638,19.5937975 60.9986548,18.4308228 Z" id="Path" fill="#444053"></path>
                <path d="M51.5837784,105.551582 C51.5837784,105.551582 54.6985163,108.575316 56.0466864,108.342722 C56.0466864,108.342722 52.2346192,108.017089 51.5837784,105.551582 Z" id="Path" fill="#000000" opacity="0.1"></path>
                <path d="M50.9329377,106.952734 C50.9329377,106.952734 51.2118694,108.508329 51.9556874,108.355747 C52.6995054,108.203165 50.9329377,106.952734 50.9329377,106.952734 Z" id="Path" fill="#000000" opacity="0.1"></path>
                <path d="M55.8142433,132.951266 C55.8142433,132.951266 51.3922453,136.393671 52.1379228,136.486709 C52.8836004,136.579747 55.8142433,132.951266 55.8142433,132.951266 Z" id="Path" fill="#000000" opacity="0.1"></path>
                <polygon id="Path" fill="#55BAC7" points="61.729456 64.6297595 76.0479525 62.2982278 76.0479525 75.8631646 62.4435213 75.1504937"></polygon>
                <polygon id="Path" fill="#000000" opacity="0.05" points="61.729456 64.6297595 76.0479525 62.2982278 76.0479525 75.8631646 62.4435213 75.1504937"></polygon>
                <polygon id="Path" fill="#55BAC7" points="76.0479525 62.2982278 93.2189911 63.5840127 92.2687636 75.3886709 76.0479525 75.8631646"></polygon>
                <polygon id="Path" fill="#000000" opacity="0.1" points="76.0479525 62.2982278 93.2189911 63.5840127 92.2687636 75.3886709 76.0479525 75.8631646"></polygon>
                <polygon id="Path" fill="#55BAC7" points="81.3272008 58.158038 76.0479525 62.2982278 93.2189911 63.5840127 96.0250445 59.3470633"></polygon>
                <polygon id="Path" fill="#55BAC7" points="56.5450445 60.1081139 69.4354105 58.5376329 76.0479525 62.2982278 61.729456 64.6297595"></polygon>
                <polygon id="Path" fill="#55BAC7" points="79.1868645 65.8206456 79.1868645 84.3668354 72.4794857 83.6783544 69.5618595 83.3806329 68.672997 83.2875949 65.7572305 82.9880127 61.729456 82.5749241 61.729456 64.6297595 76.046093 65.6047975"></polygon>
                <polygon id="Path" fill="#55BAC7" points="93.2189911 63.5840127 93.2189911 81.6705949 87.8430465 82.7033165 85.2285262 83.2057215 79.1868645 84.3668354 79.1868645 65.8206456"></polygon>
                <polygon id="Path" fill="#000000" opacity="0.05" points="93.2189911 63.5840127 93.2189911 81.6705949 87.8430465 82.7033165 85.2285262 83.2057215 79.1868645 84.3668354 79.1868645 65.8206456"></polygon>
                <polygon id="Path" fill="#55BAC7" points="56.5450445 68.5336329 61.729456 64.6297595 79.1868645 65.8206456 76.6169733 70.1524937"></polygon>
                <polygon id="Path" fill="#FFFFFF" opacity="0.1" points="56.5450445 68.5336329 61.729456 64.6297595 79.1868645 65.8206456 76.6169733 70.1524937"></polygon>
                <polygon id="Path" fill="#55BAC7" points="93.2189911 63.5840127 79.1868645 65.8206456 83.753907 69.9143165 98.7846093 67.3911266"></polygon>
                <polygon id="Path" fill="#FFFFFF" opacity="0.1" points="93.2189911 63.5840127 79.1868645 65.8206456 83.753907 69.9143165 98.7846093 67.3911266"></polygon>
                <polygon id="Path" fill="#FFFFFF" opacity="0.1" points="87.8430465 82.7033165 85.2285262 83.2057215 85.2285262 79.3409241 87.677547 78.7231519"></polygon>
                <polygon id="Path" fill="#FFFFFF" opacity="0.1" points="72.4794857 81.1216709 72.4794857 83.6783544 69.5618595 83.3806329 69.5618595 81.1216709"></polygon>
                <polygon id="Path" fill="#FFFFFF" opacity="0.1" points="68.672997 81.9273797 68.672997 83.2875949 65.7572305 82.9880127 65.7572305 81.9273797"></polygon>
                <path d="M77.431454,79.7651772 C75.4324431,82.3237215 68.8310584,80.556 68.8310584,80.556 L63.9255786,75.4351899 L63.2598615,74.7411266 L64.561543,72.3221392 C64.561543,72.3221392 64.933452,72.4449494 65.5545401,72.6607975 C68.8422156,73.8107468 79.1143422,77.6122785 77.431454,79.7651772 Z" id="Path" fill="#000000" opacity="0.1"></path>
                <path d="M77.2454995,79.3930253 C75.2464886,81.9515696 68.6451039,80.1838481 68.6451039,80.1838481 L63.7396241,75.063038 L63.073907,74.3689747 L64.3755885,71.9499873 C64.3755885,71.9499873 64.7474975,72.0727975 65.3685856,72.2886456 C68.6562611,73.4385949 78.9283877,77.2401266 77.2454995,79.3930253 Z" id="Path" fill="#EFB7B9"></path>
                <path d="M65.3611474,72.2886456 C65.0896538,73.0701646 64.3997626,74.227557 63.732186,75.063038 L63.0664688,74.3689747 L64.3681503,71.9499873 C64.3681503,71.9499873 64.7419189,72.0727975 65.3611474,72.2886456 Z" id="Path" fill="#000000" opacity="0.1"></path>
                <path d="M49.1198813,43.3501139 C49.1198813,43.3501139 44.2385757,45.2108734 44.192087,50.421 C44.1809768,53.7784156 44.367253,57.1335781 44.7499505,60.4691013 C44.7499505,60.4691013 43.3552918,68.2377722 47.3068249,70.4706835 C51.2583581,72.7035949 54.9309594,74.5643544 54.9309594,74.5643544 C54.9309594,74.5643544 61.2441147,75.5877722 62.019545,75.9134051 C62.7949753,76.239038 65.489456,72.0523291 65.0710584,71.3545443 C64.6526607,70.6567595 58.9048071,68.935557 58.2223541,67.7725823 C57.5399011,66.6096076 55.8588724,65.8262278 55.8588724,65.8262278 C55.8588724,65.8262278 54.1443719,64.6558101 54.0755687,63.6789114 C54.0067656,62.7020127 54.5125618,62.0042278 54.6557468,61.585557 C54.7989318,61.1668861 55.3177448,57.0732152 55.3177448,57.0732152 C55.3177448,57.0732152 58.092186,42.5499873 49.1198813,43.3501139 Z" id="Path" fill="#DCE6F2"></path>
                <path d="M51.3513353,60.5993544 C51.3513353,60.5993544 44.7499505,61.3436582 45.2613254,63.6696076 C45.2613254,63.6696076 47.7698516,61.3231899 51.3513353,60.5993544 Z" id="Path" fill="#000000" opacity="0.1"></path>
                <path d="M51.3513353,61.5297342 C51.3513353,61.5297342 47.6043521,64.2743544 48.2923838,64.4604304 C48.9804154,64.6465063 51.3513353,61.5297342 51.3513353,61.5297342 Z" id="Path" fill="#000000" opacity="0.1"></path>
                <path d="M53.0249258,62.6461899 C53.0249258,62.6461899 51.9556874,64.5702152 52.5600396,64.4697342 C53.1643917,64.3692532 53.0249258,62.6461899 53.0249258,62.6461899 Z" id="Path" fill="#000000" opacity="0.1"></path>
                <path d="M121.757428,20.9130759 C121.757428,20.9130759 114.691157,20.486962 115.516795,25.4477468 C115.516795,25.4477468 115.351296,26.3241646 116.145321,26.7223671 C116.145321,26.7223671 116.158338,26.3502152 116.870544,26.4786076 C117.124174,26.5213208 117.381968,26.533813 117.638536,26.5158228 C117.986235,26.492618 118.31675,26.3560119 118.579466,26.1269241 L118.579466,26.1269241 C118.579466,26.1269241 120.567319,25.3063291 121.34089,22.0537215 C121.34089,22.0537215 121.91363,21.3429114 121.898754,21.160557 L120.704926,21.6722658 C120.704926,21.6722658 121.112166,22.5337975 120.790465,23.2501899 C120.790465,23.2501899 120.753274,21.7038987 120.52269,21.7392532 C120.476202,21.7392532 119.903462,22.0388354 119.903462,22.0388354 C119.903462,22.0388354 120.60451,23.5386076 120.07454,24.6308734 C120.07454,24.6308734 120.275371,22.7812785 119.684036,22.1467595 L118.843521,22.638 C118.843521,22.638 119.663581,24.1880127 119.107577,25.4533291 C119.107577,25.4533291 119.250762,23.512557 118.666864,22.7570886 L117.904451,23.3506709 C117.904451,23.3506709 118.676162,24.8802152 118.205697,25.9296835 C118.205697,25.9296835 118.144332,23.6707215 117.738952,23.4995316 C117.738952,23.4995316 117.073234,24.0875316 116.972819,24.3294304 C116.972819,24.3294304 117.49907,25.4458861 117.17179,26.0245823 C117.17179,26.0245823 116.970959,24.5192278 116.799881,24.5117848 C116.799881,24.5117848 116.136024,25.5091519 116.067221,26.1864684 C116.099372,25.5550217 116.296192,24.9430045 116.638101,24.4113038 C116.255495,24.4837389 115.902502,24.6668196 115.622789,24.9378987 C115.622789,24.9378987 115.725064,24.2326709 116.801741,24.1712658 C116.801741,24.1712658 117.359604,23.4139367 117.497211,23.3674177 C117.497211,23.3674177 116.426113,23.2781013 115.777132,23.566519 C115.777132,23.566519 116.348012,22.9022278 117.694322,23.1943671 L118.43814,22.5803165 C118.43814,22.5803165 117.028605,22.3942405 116.429832,22.6007848 C116.429832,22.6007848 117.117864,22.0127848 118.640831,22.4407595 L119.459031,21.9513797 C119.459031,21.9513797 118.257765,21.6908734 117.54184,21.7857722 C117.54184,21.7857722 118.296815,21.3782658 119.698912,21.8192658 L120.284669,21.5568987 C120.284669,21.5568987 119.403244,21.3838481 119.146627,21.3559367 C118.89001,21.3280253 118.875134,21.2573165 118.875134,21.2573165 C119.432753,21.1644479 120.005203,21.2288825 120.528269,21.4433924 C120.528269,21.4433924 121.783462,20.9912278 121.757428,20.9130759 Z" id="Path" fill="#55BAC7"></path>
                <path d="M143.227735,45.724443 C143.227735,45.724443 136.161464,45.2983291 136.987102,50.2591139 C136.987102,50.2591139 136.821602,51.1355316 137.615628,51.5337342 C137.615628,51.5337342 137.628645,51.1615823 138.34271,51.2899747 C138.59634,51.3326879 138.854135,51.3451801 139.110702,51.3271899 C139.454317,51.3022606 139.780574,51.166449 140.040475,50.9401519 L140.040475,50.9401519 C140.040475,50.9401519 142.030188,50.1176962 142.803759,46.8650886 C142.803759,46.8650886 143.374639,46.1561392 143.352324,45.9737848 L142.158497,46.4836329 C142.158497,46.4836329 142.565737,47.3451646 142.245895,48.061557 C142.245895,48.061557 142.206845,46.5152658 141.978121,46.5506203 C141.931632,46.5506203 141.357033,46.8502025 141.357033,46.8502025 C141.357033,46.8502025 142.059941,48.3518354 141.52997,49.4422405 C141.52997,49.4422405 141.730801,47.5926456 141.137606,46.9581266 L140.30639,47.4437848 C140.30639,47.4437848 141.126449,48.9937975 140.570445,50.2591139 C140.570445,50.2591139 140.71363,48.3183418 140.129733,47.5628734 L139.369179,48.1583165 C139.369179,48.1583165 140.139031,49.686 139.670425,50.7354684 C139.670425,50.7354684 139.60906,48.4765063 139.20368,48.3053165 C139.20368,48.3053165 138.537962,48.8933165 138.435687,49.1352152 C138.435687,49.1352152 138.963798,50.2516709 138.636518,50.8303671 C138.636518,50.8303671 138.435687,49.3250127 138.264609,49.3175696 C138.264609,49.3175696 137.600752,50.3149367 137.531949,50.9922532 C137.565172,50.3607293 137.762596,49.7488283 138.104688,49.2170886 C137.721599,49.2897004 137.368058,49.4727306 137.087517,49.7436835 C137.087517,49.7436835 137.191652,49.0384557 138.268328,48.9770506 C138.268328,48.9770506 138.816894,48.2197215 138.963798,48.1732025 C138.963798,48.1732025 137.8927,48.0838861 137.243719,48.3723038 C137.243719,48.3723038 137.814599,47.7080127 139.15905,48.0094557 L139.902868,47.3954051 C139.902868,47.3954051 138.491474,47.2093291 137.89456,47.4158734 C137.89456,47.4158734 138.582591,46.8278734 140.105559,47.2558481 L140.923759,46.7664684 C140.923759,46.7664684 139.720633,46.5078228 139.004708,46.6008608 C139.004708,46.6008608 139.761543,46.1933544 141.16364,46.6343544 L141.749397,46.3719873 C141.749397,46.3719873 140.867972,46.1989367 140.609496,46.1710253 C140.351019,46.1431139 140.338002,46.0724051 140.338002,46.0724051 C140.896232,45.9794809 141.469294,46.0439118 141.992997,46.258481 C141.992997,46.258481 143.250049,45.8025949 143.227735,45.724443 Z" id="Path" fill="#55BAC7" opacity="0.1"></path>
                <path d="M100.300138,41.3200253 C100.300138,41.3200253 101.92724,34.4184684 96.8990307,34.3942785 C96.8990307,34.3942785 96.064095,34.0816709 95.5378437,34.7962025 C95.5378437,34.7962025 95.8967359,34.8724937 95.6531355,35.5535316 C95.5688853,35.7943542 95.5127265,36.0441119 95.4857765,36.2978354 C95.4497563,36.6437158 95.5274462,36.9919153 95.7070623,37.2896203 L95.7070623,37.2896203 C95.7070623,37.2896203 96.1775272,39.3922785 99.2401978,40.7096962 C99.2401978,40.7096962 99.8426904,41.3944557 100.024926,41.4018987 L99.7273986,40.138443 C99.7273986,40.138443 98.8087834,40.3933671 98.1579426,39.9523671 C98.1579426,39.9523671 99.6883482,40.177519 99.6902077,39.9523671 C99.6902077,39.9058481 99.5042532,39.2899367 99.5042532,39.2899367 C99.5042532,39.2899367 97.9069041,39.7253544 96.9213452,39.0164051 C96.9213452,39.0164051 98.708368,39.5299747 99.43545,39.055481 L99.1007319,38.1399873 C99.1007319,38.1399873 97.4271414,38.6851899 96.2816617,37.9204177 C96.2816617,37.9204177 98.1690999,38.3930506 99.0133333,37.9464684 L98.5577448,37.0942405 C98.5577448,37.0942405 96.9213452,37.5929241 95.9673986,36.950962 C95.9673986,36.950962 98.1988526,37.2747342 98.4405935,36.9063038 C98.4405935,36.9063038 97.9757072,36.1489747 97.7544214,36.007557 C97.7544214,36.007557 96.5717507,36.3387722 96.0510781,35.9163797 C96.0510781,35.9163797 97.5666073,35.9740633 97.6019387,35.814038 C97.6019387,35.814038 96.7335312,34.9897215 96.0715331,34.8036456 C96.6884521,34.9442012 97.2581792,35.2430383 97.7246686,35.6707595 C97.7178494,35.2807821 97.5976628,34.9012357 97.3787933,34.5784937 C97.3787933,34.5784937 98.0556677,34.8017848 97.9366568,35.8810253 C97.9366568,35.8810253 98.5874975,36.5508987 98.6079525,36.703481 C98.6079525,36.703481 98.8775865,35.6633165 98.7046489,34.9729747 C98.7046489,34.9729747 99.2625124,35.6502911 98.7362611,36.9249114 L99.2123046,37.771557 C99.2123046,37.771557 99.6437191,36.4132025 99.5340059,35.7879873 C99.5340059,35.7879873 99.9970326,36.5657848 99.3145796,37.9948481 L99.6585955,38.8861519 C99.6585955,38.8861519 100.117903,37.7436456 100.147656,37.0253924 C100.147656,37.0253924 100.421009,37.8404051 99.7459941,39.148519 L99.9059149,39.7700127 C99.9059149,39.7700127 100.225757,38.9308101 100.296419,38.6814684 C100.367082,38.4321266 100.439604,38.4302658 100.439604,38.4302658 C100.43677,38.9963607 100.276438,39.5504799 99.9765776,40.030519 C99.9765776,40.030519 100.220178,41.3293291 100.300138,41.3200253 Z" id="Path" fill="#55BAC7" opacity="0.1"></path>
                <path d="M84.8250049,43.6720253 C84.8250049,43.6720253 79.1496736,39.4239114 77.12091,44.0255696 C77.12091,44.0255696 76.5016815,44.6675316 76.9461128,45.4360253 C76.9461128,45.4360253 77.1581009,45.136443 77.6899308,45.6332658 C77.8783064,45.8086309 78.08679,45.9610357 78.3110188,46.0872911 C78.6147316,46.256515 78.9653663,46.3218527 79.3095945,46.2733671 L79.3095945,46.2733671 C79.3095945,46.2733671 81.4220376,46.6808734 83.8543225,44.3902785 C83.8543225,44.3902785 84.72273,44.1111646 84.80455,43.9474177 L83.5233234,43.7222658 C83.5233234,43.7222658 83.3894362,44.6656709 82.7292977,45.0880633 C82.7292977,45.0880633 83.545638,43.7743671 83.3336499,43.6794684 C83.2908803,43.659 82.6511968,43.5864304 82.6511968,43.5864304 C82.6511968,43.5864304 82.4131751,45.2276203 81.3718299,45.8472532 C81.3718299,45.8472532 82.55636,44.4126076 82.409456,43.5566582 L81.4369139,43.504557 C81.4369139,43.504557 81.2714144,45.2518101 80.1110584,46.003557 C80.1110584,46.003557 81.2955885,44.4609873 81.2267854,43.5082785 L80.263541,43.5864304 C80.263541,43.5864304 80.0682888,45.2853038 79.0994659,45.9030759 C79.0994659,45.9030759 80.2877151,43.9827722 80.0441147,43.6180633 C80.0441147,43.6180633 79.16455,43.7427342 78.9469832,43.8878734 C78.9469832,43.8878734 78.7777646,45.1048101 78.1827102,45.4136962 C78.1827102,45.4136962 78.8428487,44.046038 78.7089614,43.9511392 C78.7089614,43.9511392 77.6062512,44.4181899 77.1729773,44.9503671 C77.547778,44.4408219 78.0490282,44.0380205 78.6271414,43.7818101 C78.2674405,43.6322115 77.8719486,43.5908258 77.4890999,43.6627215 C77.4890999,43.6627215 77.9614243,43.1305443 78.8949159,43.6720253 C78.8949159,43.6720253 79.7689021,43.3426709 79.9176657,43.3836076 C79.9176657,43.3836076 79.0715727,42.7193165 78.3705242,42.6039494 C78.3705242,42.6039494 79.2147577,42.3620506 80.1724233,43.3482532 L81.1375272,43.2496329 C81.1375272,43.2496329 80.0645697,42.3192532 79.4490603,42.1629494 C79.4490603,42.1629494 80.3472206,42.049443 81.3829871,43.2440506 L82.3350742,43.2868481 C82.3350742,43.2868481 81.4741048,42.4085696 80.8251236,42.0922405 C80.8251236,42.0922405 81.6786548,42.1666709 82.6084273,43.3073165 L83.2425321,43.4096582 C83.2425321,43.4096582 82.6009891,42.7807215 82.4001583,42.6169747 C82.1993274,42.4532278 82.2272206,42.3843797 82.2272206,42.3843797 C82.7445436,42.613613 83.1880953,42.9820851 83.5084471,43.4487342 C83.5084471,43.4487342 84.8008309,43.7483165 84.8250049,43.6720253 Z" id="Path" fill="#55BAC7" opacity="0.1"></path>
                <path d="M103.719842,4.2034557 C103.719842,4.2034557 98.0445104,-0.0465189873 96.0157468,4.557 C96.0157468,4.557 95.3965183,5.19896203 95.8409496,5.9674557 C95.8409496,5.9674557 96.0529377,5.66787342 96.5847676,6.1646962 C96.7741301,6.33915547 96.9831935,6.49090353 97.2077151,6.61686076 C97.5113811,6.78621452 97.8620596,6.85156043 98.2062908,6.80293671 L98.2062908,6.80293671 C98.2062908,6.80293671 100.318734,7.21044304 102.751019,4.91798734 C102.751019,4.91798734 103.619426,4.64073418 103.699387,4.47512658 L102.41816,4.2536962 C102.41816,4.2536962 102.286133,5.19710127 101.624135,5.61949367 C101.624135,5.61949367 102.442334,4.30579747 102.230346,4.21089873 C102.187577,4.19043038 101.547893,4.11786076 101.547893,4.11786076 C101.547893,4.11786076 101.302433,5.76277215 100.261088,6.37868354 C100.261088,6.37868354 101.443759,4.94403797 101.298714,4.08808861 L100.326172,4.03598734 C100.326172,4.03598734 100.158813,5.78324051 99.0003165,6.53312658 C99.0003165,6.53312658 100.184847,4.99055696 100.116044,4.0378481 L99.1546588,4.116 C99.1546588,4.116 98.957547,5.81673418 97.988724,6.43450633 C97.988724,6.43450633 99.1788328,4.51420253 98.9352324,4.14949367 C98.9352324,4.14949367 98.0556677,4.27416456 97.8381009,4.4193038 C97.8381009,4.4193038 97.6688823,5.63624051 97.0738279,5.94512658 C97.0738279,5.94512658 97.7339664,4.57746835 97.6000791,4.48070886 C97.6000791,4.48070886 96.4973689,4.94962025 96.064095,5.48179747 C96.4383292,4.97170917 96.9397382,4.56878019 97.5182591,4.31324051 C97.1581887,4.16252928 96.7617736,4.1211147 96.3783581,4.1941519 C96.3783581,4.1941519 96.852542,3.66197468 97.7860336,4.2034557 C97.7860336,4.2034557 98.6600198,3.87224051 98.8087834,3.91503797 C98.8087834,3.91503797 97.9626904,3.25074684 97.2616419,3.13351899 C97.2616419,3.13351899 98.1040158,2.89348101 99.0616815,3.87782278 L100.026785,3.77920253 C100.026785,3.77920253 98.9556874,2.84882278 98.3383185,2.69065823 C98.3383185,2.69065823 99.2364787,2.57901266 100.274105,3.77362025 L101.226192,3.81455696 C101.226192,3.81455696 100.365223,2.93627848 99.7143818,2.62181013 C99.7143818,2.62181013 100.569773,2.69624051 101.499545,3.83688608 L102.13179,3.93922785 C102.13179,3.93922785 101.488388,3.31773418 101.287557,3.15770886 C101.086726,2.99768354 101.114619,2.92697468 101.114619,2.92697468 C101.632098,3.15595615 102.075713,3.52448037 102.395846,3.99132911 C102.395846,3.99132911 103.688229,4.27416456 103.719842,4.2034557 Z" id="Path" fill="#55BAC7" opacity="0.1"></path>
                <path d="M125.405856,9.58663291 C125.405856,9.58663291 123.137211,2.86743038 118.858398,5.5078481 C118.858398,5.5078481 117.984411,5.69392405 117.915608,6.57034177 C117.915608,6.57034177 118.259624,6.44381013 118.412107,7.15089873 C118.468758,7.40242127 118.554243,7.64655701 118.666864,7.8784557 C118.820553,8.19054508 119.071058,8.44447742 119.38093,8.60229114 L119.38093,8.60229114 C119.38093,8.60229114 120.89088,10.1374177 124.193432,9.62943038 C124.193432,9.62943038 125.065559,9.89365823 125.22548,9.80248101 L124.295707,8.8888481 C124.295707,8.8888481 123.652305,9.59035443 122.867577,9.56244304 C122.867577,9.56244304 124.286409,8.94467089 124.169258,8.74556962 C124.145084,8.70649367 123.659743,8.28410127 123.659743,8.28410127 C123.659743,8.28410127 122.532859,9.49917722 121.324154,9.41916456 C121.324154,9.41916456 123.111177,8.90931646 123.475648,8.11663291 L122.705796,7.52305063 C122.705796,7.52305063 121.578912,8.86651899 120.19727,8.82558228 C120.19727,8.82558228 122.056815,8.22827848 122.52728,7.40210127 L121.690485,6.92016456 C121.690485,6.92016456 120.574758,8.20967089 119.418121,8.16873418 C119.418121,8.16873418 121.485935,7.2625443 121.491513,6.82340506 C121.491513,6.82340506 120.697488,6.42706329 120.435292,6.42334177 C120.435292,6.42334177 119.605935,7.32953165 118.947656,7.24765823 C118.947656,7.24765823 120.264214,6.49405063 120.208427,6.33960759 C120.208427,6.33960759 119.036914,6.09956962 118.376775,6.29308861 C118.973849,6.08506676 119.614918,6.03695522 120.23632,6.15353165 C120.024124,5.82584875 119.721046,5.56719098 119.364194,5.40922785 C119.364194,5.40922785 120.055945,5.23989873 120.518971,6.21493671 C120.518971,6.21493671 121.426429,6.44008861 121.523126,6.55731646 C121.523126,6.55731646 121.203284,5.53203797 120.691909,5.03707595 C120.691909,5.03707595 121.523126,5.31805063 121.74999,6.67826582 L122.601662,7.1434557 C122.601662,7.1434557 122.250208,5.76463291 121.826231,5.2826962 C121.826231,5.2826962 122.631414,5.69950633 122.806212,7.2718481 L123.568625,7.84682278 C123.568625,7.84682278 123.356637,6.63360759 122.999604,6.00467089 C122.999604,6.00467089 123.661602,6.55173418 123.780613,8.01987342 L124.24364,8.46273418 C124.24364,8.46273418 124.072562,7.58073418 124.001899,7.33139241 C123.931236,7.08205063 123.988882,7.0653038 123.988882,7.0653038 C124.284495,7.54801074 124.440887,8.10314495 124.440752,8.66927848 C124.440752,8.66927848 125.340772,9.63501266 125.405856,9.58663291 Z" id="Path" fill="#55BAC7" opacity="0.1"></path>
                <path d="M110.600158,9.9178481 C110.600158,9.9178481 103.552483,9.13260759 104.13452,14.1361899 C104.13452,14.1361899 103.924392,15.0033038 104.692384,15.4387215 C104.692384,15.4387215 104.723996,15.0665696 105.436202,15.234038 C105.687898,15.2882301 105.944902,15.3138225 106.202334,15.3103291 C106.550067,15.3040451 106.886274,15.1844993 107.16,14.9698101 L107.16,14.9698101 C107.16,14.9698101 109.188764,14.2496962 110.135272,11.0398861 C110.135272,11.0398861 110.741484,10.3607089 110.728467,10.1764937 L109.510465,10.6267975 C109.510465,10.6267975 109.882374,11.5069367 109.510465,12.2065823 C109.510465,12.2065823 109.549515,10.6602911 109.32451,10.684481 C109.278022,10.684481 108.690406,10.9524304 108.690406,10.9524304 C108.690406,10.9524304 109.315213,12.487557 108.731316,13.5574937 C108.731316,13.5574937 109.025124,11.7190633 108.465401,11.0566329 L107.600712,11.5032152 C107.600712,11.5032152 108.34453,13.0941646 107.721583,14.3297089 C107.721583,14.3297089 107.963323,12.3982405 107.418477,11.6148608 L106.62817,12.1730886 C106.62817,12.1730886 107.319921,13.7379873 106.797389,14.7632658 C106.797389,14.7632658 106.851316,12.5043038 106.455232,12.3126456 C106.455232,12.3126456 105.759763,12.8708734 105.64633,13.1016076 C105.64633,13.1016076 106.116795,14.2366709 105.761622,14.8042025 C105.761622,14.8042025 105.637033,13.2914051 105.473393,13.276519 C105.473393,13.276519 104.759327,14.2385316 104.655193,14.9177089 C104.719696,14.2880328 104.94794,13.6862558 105.317191,13.1723165 C104.931318,13.2256755 104.569402,13.3905842 104.275846,13.6468101 C104.275846,13.6468101 104.413452,12.9490253 105.491988,12.9415823 C105.491988,12.9415823 106.077745,12.2140253 106.235806,12.1749494 C106.235806,12.1749494 105.170287,12.0316709 104.506429,12.2865949 C104.506429,12.2865949 105.110781,11.6502152 106.438497,12.0205063 L107.221365,11.4455316 C107.221365,11.4455316 105.806251,11.1589747 105.207478,11.3450506 C105.207478,11.3450506 105.925262,10.7868228 107.424055,11.2985316 L108.266429,10.8500886 C108.266429,10.8500886 107.07818,10.530038 106.358536,10.5877215 C106.358536,10.5877215 107.133966,10.2155696 108.511889,10.731 L109.110663,10.4984051 C109.110663,10.4984051 108.238536,10.2806962 107.981919,10.2397595 C107.725302,10.1988228 107.716004,10.1281139 107.716004,10.1281139 C108.27817,10.0635709 108.84721,10.1563257 109.359842,10.3960633 C109.359842,10.3960633 110.613175,9.996 110.600158,9.9178481 Z" id="Path" fill="#55BAC7" opacity="0.1"></path>
                <path d="M172.262671,64.6558101 C172.262671,64.6558101 165.218714,63.8705696 165.800752,68.8685696 C165.800752,68.8685696 165.590623,69.7356835 166.358615,70.1711013 C166.358615,70.1711013 166.390227,69.7989494 167.102433,69.964557 C167.353838,70.0205852 167.611057,70.0461989 167.868566,70.0408481 C168.216471,70.0355191 168.552973,69.9158683 168.826231,69.7003291 L168.826231,69.7003291 C168.826231,69.7003291 170.854995,68.9802152 171.792206,65.7722658 C171.792206,65.7722658 172.398417,65.0912278 172.385401,64.9088734 L171.167399,65.3573165 C171.167399,65.3573165 171.539308,66.2393165 171.167399,66.938962 C171.167399,66.938962 171.206449,65.3908101 170.981444,65.4168608 C170.934955,65.4168608 170.347339,65.6829494 170.347339,65.6829494 C170.347339,65.6829494 170.972146,67.2180759 170.388249,68.2880127 C170.388249,68.2880127 170.682057,66.451443 170.122334,65.7871519 L169.257646,66.2355949 C169.257646,66.2355949 170.001464,67.8265443 169.380376,69.0620886 C169.380376,69.0620886 169.620257,67.1306203 169.07541,66.3453797 L168.285104,66.9036076 C168.285104,66.9036076 168.976855,68.4685063 168.454322,69.4919241 C168.454322,69.4919241 168.508249,67.232962 168.112166,67.0431646 C168.112166,67.0431646 167.418556,67.6013924 167.303264,67.8321266 C167.303264,67.8321266 167.775589,68.9671899 167.418556,69.5347215 C167.418556,69.5347215 167.293966,68.0219241 167.130326,68.007038 C167.130326,68.007038 166.416261,68.9690506 166.312127,69.6482278 C166.37663,69.0185518 166.604874,68.4167748 166.974125,67.9028354 C166.587976,67.9552414 166.225798,68.1202695 165.932779,68.3773291 C165.932779,68.3773291 166.070386,67.6776835 167.148922,67.6702405 C167.148922,67.6702405 167.736538,66.9426835 167.89274,66.9054684 C167.89274,66.9054684 166.827221,66.7603291 166.163363,67.0152532 C166.163363,67.0152532 166.767715,66.3807342 168.09729,66.7510253 L168.878299,66.1760506 C168.878299,66.1760506 167.479921,65.9118228 166.87185,66.0941772 C166.87185,66.0941772 167.589634,65.5359494 169.088427,66.0457975 L169.930801,65.5992152 C169.930801,65.5992152 168.742552,65.2791646 168.022908,65.3368481 C168.022908,65.3368481 168.798338,64.9646962 170.176261,65.4801266 L170.775035,65.2456709 C170.775035,65.2456709 169.902908,65.027962 169.646291,64.9888861 C169.389674,64.9498101 169.380376,64.8772405 169.380376,64.8772405 C169.942382,64.8115262 170.511575,64.9036616 171.024214,65.1433291 C171.024214,65.1433291 172.281266,64.7358228 172.262671,64.6558101 Z" id="Path" fill="#55BAC7" opacity="0.1"></path>
                <path d="M183.031296,71.2391772 C183.031296,71.2391772 175.987339,70.4557975 176.569377,75.4519367 C176.569377,75.4519367 176.361108,76.3190506 177.12724,76.7544684 C177.12724,76.7544684 177.158853,76.3823165 177.871058,76.5497848 C178.122028,76.6044334 178.378541,76.6294144 178.635331,76.6242152 C178.981473,76.617127 179.316066,76.4983438 179.589278,76.285557 L179.589278,76.285557 C179.589278,76.285557 181.616182,75.565443 182.553393,72.3556329 C182.553393,72.3556329 183.161464,71.6764557 183.146588,71.4922405 L181.928586,71.9406835 C181.928586,71.9406835 182.300495,72.8226835 181.928586,73.5223291 C181.928586,73.5223291 181.967636,71.976038 181.742631,72.0002278 C181.696142,72.0002278 181.108526,72.2663165 181.108526,72.2663165 C181.108526,72.2663165 181.733333,73.801443 181.149436,74.8713797 C181.149436,74.8713797 181.443244,73.0348101 180.883521,72.3723797 L180.018833,72.818962 C180.018833,72.818962 180.762651,74.4099114 180.141563,75.6454557 C180.141563,75.6454557 180.381444,73.7139873 179.836597,72.9306076 L179.046291,73.4888354 C179.046291,73.4888354 179.738042,75.0537342 179.217369,76.0790127 C179.217369,76.0790127 179.269436,73.8181899 178.873353,73.6283924 C178.873353,73.6283924 178.179743,74.1866203 178.064451,74.4173544 C178.064451,74.4173544 178.536775,75.5524177 178.179743,76.1199494 C178.179743,76.1199494 178.055153,74.6071519 177.891513,74.5922658 C177.891513,74.5922658 177.177448,75.5542785 177.075173,76.2334557 C177.139549,75.6040561 177.367107,75.0023993 177.735312,74.4880633 C177.349439,74.5414223 176.987523,74.706331 176.693966,74.962557 C176.693966,74.962557 176.833432,74.2629114 177.911968,74.2573291 C177.911968,74.2573291 178.497725,73.5297722 178.655786,73.4906962 C178.655786,73.4906962 177.590267,73.3474177 176.926409,73.6023418 C176.926409,73.6023418 177.530762,72.965962 178.860336,73.3362532 L179.641345,72.7612785 C179.641345,72.7612785 178.242967,72.4970506 177.634896,72.6794051 C177.634896,72.6794051 178.352681,72.1211772 179.851474,72.6328861 L180.693848,72.184443 C180.693848,72.184443 179.505598,71.8643924 178.785955,71.9220759 C178.785955,71.9220759 179.561385,71.5499241 180.939308,72.0653544 L181.538081,71.8327595 C181.538081,71.8327595 180.665955,71.6150506 180.411197,71.5741139 C180.156439,71.5331772 180.143422,71.4624684 180.143422,71.4624684 C180.705588,71.3979253 181.274628,71.4906801 181.78726,71.7304177 C181.78726,71.7304177 183.049891,71.3191899 183.031296,71.2391772 Z" id="Path" fill="#55BAC7" opacity="0.1"></path>
                <path d="M159.123126,15.7866835 C159.123126,15.7866835 153.447794,11.5385696 151.419031,16.1402278 C151.419031,16.1402278 150.799802,16.7821899 151.244233,17.5506835 C151.244233,17.5506835 151.456222,17.2511013 151.988051,17.7479241 C152.176427,17.9232891 152.384911,18.075694 152.609139,18.2019494 C152.912899,18.3710436 153.26349,18.4363732 153.607715,18.3880253 L153.607715,18.3880253 C153.607715,18.3880253 155.720158,18.7955316 158.154303,16.5049367 C158.154303,16.5049367 159.020851,16.2258228 159.102671,16.0620759 L157.825163,15.8313418 C157.825163,15.8313418 157.691276,16.7747468 157.031137,17.1971392 C157.031137,17.1971392 157.847478,15.883443 157.63549,15.7885443 C157.59272,15.7680759 156.954896,15.6955063 156.954896,15.6955063 C156.954896,15.6955063 156.715015,17.3366962 155.67367,17.9563291 C155.67367,17.9563291 156.8582,16.5216835 156.711296,15.6657342 L155.738754,15.6136329 C155.738754,15.6136329 155.573254,17.3608861 154.412898,18.1126329 C154.412898,18.1126329 155.599288,16.5700633 155.528625,15.6173544 L154.565381,15.6955063 C154.565381,15.6955063 154.379426,17.3943797 153.401306,18.0121519 C153.401306,18.0121519 154.591414,16.0918481 154.345955,15.7271392 C154.345955,15.7271392 153.46639,15.8518101 153.248823,15.9969494 C153.248823,15.9969494 153.081464,17.2138861 152.486409,17.5227722 C152.486409,17.5227722 153.144688,16.1551139 153.010801,16.0602152 C153.010801,16.0602152 151.908091,16.5272658 151.474817,17.059443 C151.849618,16.5498979 152.350868,16.1470965 152.928981,15.8908861 C152.56928,15.7412874 152.173788,15.6999018 151.79094,15.7717975 C151.79094,15.7717975 152.265124,15.2396203 153.198615,15.7811013 C153.198615,15.7811013 154.070742,15.4517468 154.219505,15.4926835 C154.219505,15.4926835 153.373412,14.8283924 152.672364,14.7130253 C152.672364,14.7130253 153.516597,14.4711266 154.474263,15.4573291 L155.439367,15.3587089 C155.439367,15.3587089 154.368269,14.4283291 153.7509,14.2720253 C153.7509,14.2720253 154.64906,14.158519 155.684827,15.3531266 L156.638773,15.3959241 C156.638773,15.3959241 155.775945,14.5176456 155.126963,14.2013165 C155.126963,14.2013165 155.982354,14.2757468 156.910267,15.4163924 L157.544372,15.5187342 C157.544372,15.5187342 156.902829,14.8897975 156.701998,14.7260506 C156.501167,14.5623038 156.53092,14.5083418 156.53092,14.5083418 C157.04751,14.7379488 157.490368,15.1063792 157.810287,15.5726962 C157.810287,15.5726962 159.098952,15.8629747 159.123126,15.7866835 Z" id="Path" fill="#55BAC7" opacity="0.1"></path>
                <path d="M163.507933,46.4557215 C163.507933,46.4557215 161.551691,39.6397595 157.152008,42.0866582 C157.152008,42.0866582 156.270584,42.2224937 156.16087,43.1044937 C156.16087,43.1044937 156.510465,42.9947089 156.631335,43.7073797 C156.676156,43.963411 156.751057,44.2132448 156.854481,44.4516835 C156.99241,44.7723258 157.231448,45.0389684 157.535074,45.2108734 L157.535074,45.2108734 C157.535074,45.2108734 158.974362,46.8111266 162.295509,46.4538608 C162.295509,46.4538608 163.154619,46.7553038 163.318259,46.6734304 L162.438694,45.717 C162.438694,45.717 161.76368,46.3905949 160.982671,46.3273291 C160.982671,46.3273291 162.425678,45.7691013 162.314105,45.57 C162.29179,45.5290633 161.826904,45.0843418 161.826904,45.0843418 C161.826904,45.0843418 160.647953,46.2491772 159.442967,46.1133418 C159.442967,46.1133418 161.252305,45.6853671 161.650247,44.9150127 L160.906429,44.2860759 C160.906429,44.2860759 159.72004,45.577443 158.342117,45.476962 C158.342117,45.476962 160.216538,44.9615316 160.733492,44.1595443 L159.919011,43.6403924 C159.919011,43.6403924 158.7382,44.8777975 157.59272,44.7847595 C157.59272,44.7847595 159.699585,43.9716076 159.725618,43.5343291 C159.725618,43.5343291 158.948328,43.1026329 158.686133,43.0877468 C158.686133,43.0877468 157.817725,43.9548608 157.157587,43.8432152 C157.157587,43.8432152 158.507616,43.1491519 158.459268,42.9928481 C158.459268,42.9928481 157.298912,42.7007089 156.631335,42.8625949 C157.235961,42.6831858 157.87688,42.664587 158.49088,42.8086329 C158.294211,42.4719394 158.003307,42.2002517 157.654085,42.0271139 C157.654085,42.0271139 158.353274,41.887557 158.769812,42.8830633 C158.769812,42.8830633 159.664253,43.1472911 159.75723,43.2701013 C159.75723,43.2701013 159.483877,42.2299367 158.994817,41.7145063 C158.994817,41.7145063 159.813017,42.0308354 159.978516,43.4003544 L160.807873,43.9046203 C160.807873,43.9046203 160.517784,42.5090506 160.116123,42.0178101 C160.116123,42.0178101 160.900851,42.4699747 161.006845,44.0478987 L161.750663,44.6563671 C161.750663,44.6563671 161.592601,43.4357089 161.265321,42.7956076 C161.265321,42.7956076 161.903145,43.372443 161.955213,44.842443 L162.397784,45.3076329 C162.397784,45.3076329 162.267616,44.4181899 162.21183,44.1651266 C162.156044,43.9120633 162.21183,43.8767089 162.21183,43.8767089 C162.487003,44.3716561 162.619002,44.9335026 162.593037,45.4992911 C162.593037,45.4992911 163.440989,46.5003797 163.507933,46.4557215 Z" id="Path" fill="#55BAC7" opacity="0.1"></path>
                <path d="M119.916479,61.8144304 C119.916479,61.8144304 116.117428,55.8265063 112.589871,59.4103291 C112.589871,59.4103291 111.782829,59.782481 111.924154,60.6663418 C111.924154,60.6663418 112.230979,60.4616582 112.547102,61.1129241 C112.660693,61.3437255 112.801807,61.5599078 112.967359,61.7567468 C113.18908,62.0254085 113.492899,62.213703 113.832047,62.2926456 L113.832047,62.2926456 C113.832047,62.2926456 115.663699,63.4239873 118.750544,62.1437848 C118.750544,62.1437848 119.659862,62.1921646 119.793749,62.0674937 L118.678022,61.3976203 C118.678022,61.3976203 118.218714,62.234962 117.450722,62.3931266 C117.450722,62.3931266 118.681741,61.4627468 118.516241,61.291557 C118.484629,61.2580633 117.911889,60.9640633 117.911889,60.9640633 C117.911889,60.9640633 117.106706,62.4117342 115.912878,62.622 C115.912878,62.622 117.528823,61.7009241 117.696182,60.8486962 L116.80546,60.4560759 C116.80546,60.4560759 116.03003,62.0284177 114.68,62.3168354 C114.68,62.3168354 116.334995,61.2952785 116.604629,60.3797848 L115.674857,60.1118354 C115.674857,60.1118354 114.890129,61.6320759 113.765104,61.8646709 C113.765104,61.8646709 115.557705,60.4914304 115.459149,60.0634557 C115.459149,60.0634557 114.592601,59.8680759 114.343422,59.9276203 C114.343422,59.9276203 113.753947,61.005 113.088229,61.0831519 C113.088229,61.0831519 114.18908,60.0374051 114.097962,59.8997089 C114.097962,59.8997089 112.902275,59.9462278 112.307221,60.2904684 C112.83802,59.9463661 113.449676,59.74748 114.081227,59.7136329 C113.79847,59.445839 113.443598,59.2666701 113.060336,59.1982025 C113.060336,59.1982025 113.690722,58.8688481 114.362018,59.7061899 C114.362018,59.7061899 115.29179,59.7061899 115.420099,59.7992278 C115.420099,59.7992278 114.862235,58.8688481 114.250445,58.5208861 C114.250445,58.5208861 115.124431,58.5953165 115.667418,59.8624937 L116.606489,60.1118354 C116.606489,60.1118354 115.935193,58.8558228 115.412661,58.4966962 C115.412661,58.4966962 116.292226,58.7088228 116.837072,60.1955696 L117.714777,60.5677215 C117.714777,60.5677215 117.220138,59.441962 116.72364,58.9153671 C116.72364,58.9153671 117.497211,59.287519 117.960237,60.6849494 L118.518101,61.0068608 C118.518101,61.0068608 118.146192,60.1899873 118.014164,59.9648354 C117.882136,59.7396835 117.934204,59.6875823 117.934204,59.6875823 C118.336599,60.0853151 118.62053,60.5871897 118.754263,61.1371139 C118.754263,61.1371139 119.866271,61.8776962 119.916479,61.8144304 Z" id="Path" fill="#55BAC7" opacity="0.1"></path>
                <path d="M144.88459,31.2198228 C144.88459,31.2198228 141.271494,25.1183924 137.632364,28.5905696 C137.632364,28.5905696 136.814164,28.9441139 136.929456,29.8261139 C136.929456,29.8261139 137.24,29.6288734 137.537527,30.289443 C137.643921,30.5242579 137.778152,30.7454157 137.937329,30.9481519 C138.150869,31.2225534 138.44893,31.4187747 138.785282,31.5063797 L138.785282,31.5063797 C138.785282,31.5063797 140.579743,32.6935443 143.705638,31.5063797 C143.705638,31.5063797 144.613096,31.5826709 144.750702,31.4617215 L143.659149,30.7583544 C143.659149,30.7583544 143.175668,31.5789494 142.402097,31.7147848 C142.402097,31.7147848 143.661009,30.816038 143.502948,30.6467089 C143.469476,30.6113544 142.907893,30.2987468 142.907893,30.2987468 C142.907893,30.2987468 142.058081,31.7222278 140.862394,31.8952785 C140.862394,31.8952785 142.506231,31.024443 142.697765,30.1796582 L141.820059,29.7665696 C141.820059,29.7665696 140.996281,31.3165823 139.636954,31.5640633 C139.636954,31.5640633 141.323561,30.5946076 141.621088,29.6884177 L140.702473,29.3906962 C140.702473,29.3906962 139.869397,30.8793038 138.738793,31.0839873 C138.738793,31.0839873 140.572305,29.7665696 140.486766,29.3367342 C140.486766,29.3367342 139.627656,29.113443 139.371039,29.1655443 C139.371039,29.1655443 138.748091,30.2243165 138.080514,30.282 C138.080514,30.282 139.212977,29.2734684 139.127438,29.1320506 C139.127438,29.1320506 137.929891,29.1413544 137.325539,29.4669873 C137.866921,29.1402231 138.484208,28.9606247 139.116281,28.9459747 C138.841422,28.6693673 138.491738,28.4792116 138.110267,28.3989114 C138.110267,28.3989114 138.75181,28.0881646 139.411949,28.9459747 C139.411949,28.9459747 140.341721,28.9776076 140.466311,29.0725063 C140.466311,29.0725063 139.940059,28.1421266 139.337567,27.7588101 C139.337567,27.7588101 140.207834,27.8592911 140.711771,29.1432152 L141.641543,29.4223291 C141.641543,29.4223291 141.011157,28.1458481 140.497923,27.7699747 C140.497923,27.7699747 141.371909,28.0100127 141.870267,29.5116456 L142.734955,29.9154304 C142.734955,29.9154304 142.275648,28.7747848 141.805183,28.2407468 C141.805183,28.2407468 142.565737,28.6370886 142.987854,30.0475443 L143.5327,30.3862025 C143.5327,30.3862025 143.183106,29.5581646 143.060376,29.3292911 C142.937646,29.1004177 142.989713,29.0501772 142.989713,29.0501772 C143.379507,29.4601412 143.647946,29.9703148 143.765143,30.5238987 C143.765143,30.5238987 144.830663,31.2812278 144.88459,31.2198228 Z" id="Path" fill="#55BAC7"></path>
                <path d="M122.025203,44.0497595 C122.025203,44.0497595 122.211157,36.9602658 117.288942,37.9594937 C117.288942,37.9594937 116.407517,37.8236582 116.035608,38.6312278 C116.035608,38.6312278 116.407517,38.6312278 116.303383,39.3476203 C116.269317,39.6030663 116.265572,39.8616481 116.292226,40.1179747 C116.325841,40.4656529 116.472871,40.7925977 116.710623,41.0483544 L116.710623,41.0483544 C116.710623,41.0483544 117.597626,43.0095949 120.872285,43.6757468 C120.872285,43.6757468 121.599367,44.2246709 121.781602,44.1948987 L121.223739,43.0188987 C121.223739,43.0188987 120.377646,43.4543165 119.650564,43.1584557 C119.650564,43.1584557 121.193986,43.0672785 121.151217,42.8402658 C121.151217,42.7937468 120.831375,42.2280759 120.831375,42.2280759 C120.831375,42.2280759 119.354896,42.9816835 118.248467,42.4867215 C118.248467,42.4867215 120.108012,42.6262785 120.716083,42.0140886 L120.19727,41.1897722 C120.19727,41.1897722 118.676162,42.0606076 117.393076,41.547038 C117.393076,41.547038 119.336301,41.6251899 120.072681,41.0167215 L119.453452,40.2724177 C119.453452,40.2724177 117.952799,41.0948734 116.889139,40.6594557 C116.889139,40.6594557 119.142908,40.5236203 119.306548,40.1123924 C119.306548,40.1123924 118.696617,39.4667089 118.451157,39.3680886 C118.451157,39.3680886 117.361464,39.9263165 116.766409,39.6248734 C116.766409,39.6248734 118.254045,39.3755316 118.263343,39.2099241 C118.263343,39.2099241 117.246172,38.5791266 116.56,38.5326076 C117.192728,38.5439272 117.81144,38.7210009 118.354461,39.0461772 C118.26974,38.6658383 118.075846,38.3185424 117.796597,38.0469494 C117.796597,38.0469494 118.505084,38.126962 118.60178,39.2006203 C118.60178,39.2006203 119.377211,39.7253544 119.427418,39.8704937 C119.427418,39.8704937 119.481345,38.7968354 119.170801,38.1567342 C119.170801,38.1567342 119.855114,38.7056582 119.598497,40.0602911 L120.23632,40.7934304 C120.23632,40.7934304 120.381365,39.3755316 120.148922,38.7856709 C120.148922,38.7856709 120.758853,39.4536835 120.383225,40.9906709 L120.898318,41.7926582 C120.898318,41.7926582 121.117745,40.5813038 121.000593,39.8686329 C121.000593,39.8686329 121.432008,40.6129367 121.037784,42.0289747 L121.320435,42.6058101 C121.320435,42.6058101 121.46362,41.7182278 121.482216,41.4595823 C121.500811,41.2009367 121.571474,41.1841899 121.571474,41.1841899 C121.683413,41.7392719 121.638991,42.3145619 121.443165,42.8458481 C121.443165,42.8458481 121.943383,44.0739494 122.025203,44.0497595 Z" id="Path" fill="#55BAC7"></path>
                <ellipse id="Oval" fill="#55BAC7" opacity="0.1" cx="130.162572" cy="133.286203" rx="5.0077547" ry="1"></ellipse>
                <ellipse id="Oval" fill="#55BAC7" opacity="0.1" cx="111.907418" cy="146.140329" rx="5.0077547" ry="1"></ellipse>
                <ellipse id="Oval" fill="#55BAC7" opacity="0.1" cx="17.5057567" cy="139.555101" rx="5.0077547" ry="1"></ellipse>
                <ellipse id="Oval" fill="#55BAC7" opacity="0.1" cx="149.890485" cy="145.293684" rx="5.0077547" ry="1"></ellipse>
                <ellipse id="Oval" fill="#55BAC7" cx="155.104649" cy="134.551519" rx="7.47723046" ry="1.26531646"></ellipse>
                <path d="M158.20451,132.480494 C158.545852,132.20295 158.794339,131.827705 158.916716,131.404975 C159.009693,130.977 158.827458,130.465291 158.420218,130.308987 C157.96277,130.134076 157.473709,130.450405 157.1018,130.770456 C156.729891,131.090506 156.307774,131.457076 155.822433,131.390089 C156.329212,130.929409 156.557824,130.23677 156.424926,129.564684 C156.403856,129.427754 156.34601,129.299123 156.257567,129.192532 C156.002809,128.920861 155.543501,129.038089 155.238536,129.252076 C154.271573,129.933114 154.001939,131.24681 153.99636,132.430253 C153.899664,132.004139 153.981484,131.559418 153.979624,131.127722 C153.977765,130.696025 153.856894,130.197342 153.486845,129.970329 C153.259704,129.843596 153.003045,129.779389 152.743027,129.784253 C152.307893,129.769367 151.822552,129.812165 151.526884,130.130354 C151.154975,130.524835 151.253531,131.189127 151.573373,131.618962 C151.893215,132.048797 152.382275,132.326051 152.832285,132.627494 C153.192449,132.842714 153.499958,133.135802 153.732305,133.485304 C153.758782,133.533986 153.780575,133.585077 153.797389,133.637886 L156.523482,133.637886 C157.133773,133.330306 157.699321,132.940925 158.20451,132.480494 Z" id="Path" fill="#55BAC7"></path>
                <path d="M14.1436993,135.619595 C14.1436993,135.619595 16.9981009,135.532139 17.8627893,134.918089 C18.7274777,134.304038 22.2568942,133.572759 22.4707418,134.557101 C22.6845895,135.541443 26.7625717,139.449038 23.5381207,139.475089 C20.3136696,139.501139 16.0460138,138.972684 15.1869041,138.447949 C14.3277943,137.923215 14.1436993,135.619595 14.1436993,135.619595 Z" id="Path" fill="#A8A8A8"></path>
                <path d="M23.5920475,139.132709 C20.3675964,139.158759 16.0999407,138.630304 15.2408309,138.10557 C14.586271,137.707367 14.3259347,136.276443 14.2385361,135.615873 L14.1436993,135.615873 C14.1436993,135.615873 14.3296538,137.921354 15.183185,138.444228 C16.0367161,138.967101 20.3099505,139.497418 23.5344016,139.471367 C24.4641741,139.471367 24.7858754,139.132709 24.7691395,138.641468 C24.6389713,138.941051 24.2837982,139.127127 23.5920475,139.132709 Z" id="Path" fill="#000000" opacity="0.2"></path>
            </g>
        </g>
    </g>
</svg>