<?xml version="1.0" encoding="UTF-8"?>
<svg width="188px" height="178px" viewBox="0 0 188 178" version="1.1" xmlns="http://www.w3.org/2000/svg" xmlns:xlink="http://www.w3.org/1999/xlink">
    <!-- Generator: Sketch 53 (72520) - https://sketchapp.com -->
    <title>wishlist@1.5x</title>
    <desc>Created with Sketch.</desc>
    <defs>
        <linearGradient x1="49.9988159%" y1="100%" x2="49.9988159%" y2="0%" id="linearGradient-1">
            <stop stop-color="#808080" stop-opacity="0.25" offset="0%"></stop>
            <stop stop-color="#808080" stop-opacity="0.12" offset="54%"></stop>
            <stop stop-color="#808080" stop-opacity="0.1" offset="100%"></stop>
        </linearGradient>
        <linearGradient x1="50%" y1="100%" x2="50%" y2="0%" id="linearGradient-2">
            <stop stop-color="#808080" stop-opacity="0.25" offset="0%"></stop>
            <stop stop-color="#808080" stop-opacity="0.12" offset="54%"></stop>
            <stop stop-color="#808080" stop-opacity="0.1" offset="100%"></stop>
        </linearGradient>
        <linearGradient x1="60.3952779%" y1="98.8803643%" x2="39.6622873%" y2="1.02948481%" id="linearGradient-3">
            <stop stop-color="#808080" stop-opacity="0.25" offset="0%"></stop>
            <stop stop-color="#808080" stop-opacity="0.12" offset="54%"></stop>
            <stop stop-color="#808080" stop-opacity="0.1" offset="100%"></stop>
        </linearGradient>
        <linearGradient x1="49.9988159%" y1="100%" x2="49.9988159%" y2="0%" id="linearGradient-4">
            <stop stop-color="#808080" stop-opacity="0.25" offset="0%"></stop>
            <stop stop-color="#808080" stop-opacity="0.12" offset="54%"></stop>
            <stop stop-color="#808080" stop-opacity="0.1" offset="100%"></stop>
        </linearGradient>
        <linearGradient x1="50%" y1="100%" x2="50%" y2="0%" id="linearGradient-5">
            <stop stop-color="#808080" stop-opacity="0.25" offset="0%"></stop>
            <stop stop-color="#808080" stop-opacity="0.12" offset="54%"></stop>
            <stop stop-color="#808080" stop-opacity="0.1" offset="100%"></stop>
        </linearGradient>
        <linearGradient x1="50%" y1="99.9144422%" x2="50%" y2="-0.0855578371%" id="linearGradient-6">
            <stop stop-color="#808080" stop-opacity="0.25" offset="0%"></stop>
            <stop stop-color="#808080" stop-opacity="0.12" offset="54%"></stop>
            <stop stop-color="#808080" stop-opacity="0.1" offset="100%"></stop>
        </linearGradient>
    </defs>
    <g id="Page-1" stroke="none" stroke-width="1" fill="none" fill-rule="evenodd">
        <g id="8.1-Wishlist-empty" transform="translate(-94.000000, -264.000000)" fill-rule="nonzero">
            <g id="wishlist" transform="translate(94.000000, 264.000000)">
                <polygon id="Rectangle" fill="#E0E0E0" transform="translate(79.254226, 87.710048) rotate(-12.110000) translate(-79.254226, -87.710048) " points="29.1615387 18.8383235 129.21363 18.9347876 129.346912 156.581772 29.2948208 156.485308"></polygon>
                <g id="Group" opacity="0.5" transform="translate(17.861145, 12.535211)" fill="url(#linearGradient-1)">
                    <polygon id="Rectangle" transform="translate(61.394440, 75.175712) rotate(-12.110000) translate(-61.394440, -75.175712) " points="12.9947403 8.63195225 109.665363 8.72515615 109.79414 141.719471 13.1235173 141.626267"></polygon>
                </g>
                <polygon id="Rectangle" fill="#FAFAFA" transform="translate(79.151056, 87.231690) rotate(-12.110000) translate(-79.151056, -87.231690) " points="31.9833402 22.1583209 126.19284 22.249152 126.318772 152.305058 32.1092719 152.214227"></polygon>
                <polygon id="Rectangle" fill="url(#linearGradient-2)" transform="translate(65.567727, 23.636475) rotate(-12.110000) translate(-65.567727, -23.636475) " points="42.1941925 17.9776271 88.9303464 18.0226873 88.9412616 29.2953238 42.2051077 29.2502636"></polygon>
                <path d="M62.0583191,7.36386684 C58.5295981,8.11825864 56.2969549,11.6440717 57.0732278,15.2382586 C57.8495006,18.8324456 61.3370037,21.1389245 64.8588551,20.3845327 C68.3807065,19.6301408 70.6202192,16.1043278 69.8439464,12.5101408 C69.0676736,8.91595391 65.5870402,6.60947503 62.0583191,7.36386684 Z M64.2726431,17.6427401 C62.747237,18.0048188 61.153327,17.4125663 60.2395061,16.144139 C59.3256851,14.8757116 59.273526,13.183141 60.1075257,11.861357 C60.9415253,10.539573 62.4959712,9.85120889 64.040805,10.1195607 C65.5856387,10.3879125 66.8139078,11.5596596 67.1487454,13.0844814 C67.3771867,14.0687278 67.2021603,15.103004 66.6623921,15.9584683 C66.1226239,16.8139326 65.2626128,17.4200601 64.2726431,17.6427401 Z" id="Shape" fill="url(#linearGradient-3)"></path>
                <polygon id="Rectangle" fill="#55BAC7" transform="translate(65.413428, 22.920928) rotate(-12.110000) translate(-65.413428, -22.920928) " points="42.5323584 17.5110308 88.2840631 17.5551418 88.2944971 28.3308248 42.5427924 28.2867139"></polygon>
                <path d="M62.0583191,7.36386684 C58.60484,8.10161855 56.406079,11.4860634 57.1471801,14.9233419 C57.8882811,18.3606204 61.2886205,20.5491799 64.7421571,19.8116949 C68.1956937,19.07421 70.3947186,15.689935 69.6538855,12.2525992 C69.2980881,10.6017616 68.2979266,9.15923495 66.8734562,8.24240342 C65.4489858,7.32557189 63.7169099,7.00954931 62.0583191,7.36386684 L62.0583191,7.36386684 Z M64.1741778,17.1869142 C62.7143454,17.498682 61.2095717,16.9044603 60.3615841,15.681355 C59.5135965,14.4582496 59.4894076,12.8471532 60.3002973,11.599375 C61.1111871,10.3515968 62.5974496,9.71288879 64.0659898,9.98110229 C65.5345301,10.2493158 66.6961167,11.3716258 67.0090621,12.8246607 C67.4363023,14.8083766 66.1671738,16.7612818 64.1741778,17.1869142 L64.1741778,17.1869142 Z" id="Shape" fill="#55BAC7"></path>
                <rect id="Rectangle" fill="#E0E0E0" x="59.0539829" y="26.6453009" width="100.072789" height="137.618387"></rect>
                <g id="Group" opacity="0.5" transform="translate(60.682095, 28.944942)" fill="url(#linearGradient-4)">
                    <rect id="Rectangle" x="0.0641169306" y="0.0273495519" width="96.6906212" height="132.966684"></rect>
                </g>
                <rect id="Rectangle" fill="#FFFFFF" x="61.9758831" y="29.9523175" width="94.228989" height="130.028886"></rect>
                <rect id="Rectangle" fill="url(#linearGradient-5)" x="85.8411206" y="24.3137516" width="46.7458222" height="11.2702945"></rect>
                <path d="M109.214032,13.3123944 C105.605164,13.3123944 102.678685,16.2934955 102.678685,19.9720102 C102.678685,23.650525 105.605164,26.6316261 109.214032,26.6316261 C112.822899,26.6316261 115.749379,23.650525 115.749379,19.9720102 C115.749379,16.2934955 112.822899,13.3123944 109.214032,13.3123944 Z M109.214032,23.8146223 C107.644703,23.8516897 106.209065,22.9393345 105.582527,21.5067826 C104.955989,20.0742308 105.263305,18.4067282 106.359896,17.2887669 C107.456488,16.1708057 109.124003,15.8249912 110.577945,16.4140152 C112.031886,17.0030391 112.982749,18.4096166 112.983191,19.9720102 C112.998467,22.0620246 111.313819,23.7713537 109.214032,23.7963892 L109.214032,23.8146223 Z" id="Shape" fill="url(#linearGradient-6)"></path>
                <rect id="Rectangle" fill="#55BAC7" x="86.333447" y="23.8305762" width="45.7611693" height="10.7734443"></rect>
                <path d="M109.214032,13.3123944 C106.627227,13.3123944 104.295136,14.863325 103.305209,17.2419898 C102.315282,19.6206545 102.862467,22.3586161 104.691614,24.1791673 C106.520761,25.9997185 109.27165,26.5443329 111.661546,25.5590577 C114.051442,24.5737825 115.609695,22.2526507 115.609695,19.6780026 C115.609695,16.1623742 112.746259,13.3123944 109.214032,13.3123944 L109.214032,13.3123944 Z M109.214032,23.351959 C107.177173,23.3494375 105.527316,21.7052872 105.52732,19.6779988 C105.527323,17.6507104 107.177186,16.006566 109.214045,16.0040518 C111.250904,16.0015375 112.904859,17.6416039 112.909915,19.668886 C112.909308,20.6436752 112.519507,21.5782661 111.826329,22.2669048 C111.13315,22.9555434 110.193423,23.341773 109.214032,23.3405634 L109.214032,23.351959 Z" id="Shape" fill="#55BAC7"></path>
                <g id="Group" opacity="0.5" transform="translate(1.373934, 167.971831)" fill="#47E6B1">
                    <rect id="Rectangle" x="2.12272838" y="0.0113956466" width="1" height="4.86138284"></rect>
                    <polygon id="Rectangle" transform="translate(2.554373, 2.443227) rotate(90.000000) translate(-2.554373, -2.443227) " points="2.1258964 0.00105854482 2.98284903 0.00105854482 2.98284903 4.88539472 2.1258964 4.88539472"></polygon>
                </g>
                <g id="Group" opacity="0.5" transform="translate(101.213155, 0.000000)" fill="#47E6B1">
                    <rect id="Rectangle" x="2.17310597" y="0" width="1" height="4.86138284"></rect>
                    <polygon id="Rectangle" transform="translate(2.604750, 2.429552) rotate(90.000000) translate(-2.604750, -2.429552) " points="2.17627399 -0.0126162311 3.03322662 -0.0126162311 3.03322662 4.87171994 2.17627399 4.87171994"></polygon>
                </g>
                <path d="M176.568867,176.076415 C176.077251,175.863415 175.82415,175.317445 175.980365,174.80694 C175.992544,174.769221 176.00023,174.730208 176.003264,174.690704 L176.003264,174.690704 C176.017294,174.458935 175.877118,174.245383 175.658234,174.165065 C175.43935,174.084747 175.193444,174.15663 175.05296,174.341997 L175.05296,174.341997 C175.029148,174.373746 175.009166,174.408169 174.993423,174.444558 C174.779417,174.933865 174.230869,175.185775 173.717954,175.030294 C173.680056,175.018173 173.64086,175.010523 173.601169,175.007503 L173.601169,175.007503 C173.368306,174.993539 173.153745,175.133057 173.073048,175.350912 C172.992351,175.568768 173.064573,175.813518 173.250816,175.953342 L173.250816,175.953342 C173.282715,175.977042 173.3173,175.99693 173.353861,176.012599 C173.845478,176.225599 174.098578,176.771569 173.942363,177.282074 C173.930184,177.319794 173.922498,177.358806 173.919464,177.39831 L173.919464,177.39831 C173.905434,177.630079 174.04561,177.843631 174.264495,177.923949 C174.483379,178.004267 174.729284,177.932384 174.869769,177.747017 L174.869769,177.747017 C174.89358,177.715268 174.913563,177.680845 174.929306,177.644456 C175.143311,177.15515 175.691859,176.903239 176.204775,177.05872 C176.242672,177.070841 176.281869,177.078491 176.321559,177.081511 L176.321559,177.081511 C176.554423,177.095475 176.768983,176.955957 176.84968,176.738102 C176.930377,176.520246 176.858155,176.275496 176.671912,176.135672 L176.671912,176.135672 C176.640013,176.111972 176.605428,176.092084 176.568867,176.076415 Z" id="Path" fill="#4D8AF0" opacity="0.5"></path>
                <path d="M31.2959318,129.340589 C30.8043152,129.127589 30.551215,128.581619 30.70743,128.071114 C30.7196089,128.033395 30.7272946,127.994382 30.7303289,127.954878 L30.7303289,127.954878 C30.7443586,127.723109 30.6041826,127.509557 30.3852984,127.429239 C30.1664142,127.348921 29.9205086,127.420804 29.7800244,127.606172 L29.7800244,127.606172 C29.7562127,127.637921 29.7362301,127.672343 29.7204872,127.708732 C29.5064815,128.198039 28.9579336,128.449949 28.4450183,128.294469 C28.4071209,128.282347 28.3679243,128.274697 28.3282339,128.271677 L28.3282339,128.271677 C28.0953702,128.257714 27.8808096,128.397231 27.8001125,128.615086 C27.7194155,128.832942 27.7916376,129.077692 27.9778806,129.217516 L27.9778806,129.217516 C28.0097795,129.241216 28.0443648,129.261104 28.0809257,129.276773 C28.5725423,129.489773 28.8256425,130.035743 28.6694275,130.546248 C28.6572485,130.583968 28.6495629,130.62298 28.6465286,130.662484 L28.6465286,130.662484 C28.6324989,130.894253 28.7726749,131.107806 28.9915591,131.188123 C29.2104433,131.268441 29.4563489,131.196559 29.5968331,131.011191 L29.5968331,131.011191 C29.6206448,130.979442 29.6406274,130.945019 29.6563703,130.90863 C29.8703759,130.419324 30.4189238,130.167413 30.9318392,130.322894 C30.9697366,130.335015 31.0089332,130.342665 31.0486236,130.345685 L31.0486236,130.345685 C31.2814872,130.359649 31.4960479,130.220132 31.5767449,130.002276 C31.657442,129.78442 31.5852199,129.53967 31.3989769,129.399846 L31.3989769,129.399846 C31.367078,129.376147 31.3324927,129.356258 31.2959318,129.340589 Z" id="Path" fill="#FDD835" opacity="0.5"></path>
                <path d="M152.296029,15.5391037 C151.804413,15.3261037 151.551312,14.7801337 151.707527,14.2696287 C151.719706,14.2319094 151.727392,14.192897 151.730426,14.1533931 L151.730426,14.1533931 C151.744456,13.9216238 151.60428,13.7080714 151.385396,13.6277536 C151.166512,13.5474358 150.920606,13.6193185 150.780122,13.8046863 L150.780122,13.8046863 C150.75631,13.8364353 150.736328,13.870858 150.720585,13.9072471 C150.506579,14.3965534 149.958031,14.6484642 149.445116,14.4929834 C149.407218,14.4808616 149.368022,14.4732121 149.328331,14.4701921 L149.328331,14.4701921 C149.095468,14.4562282 148.880907,14.5957455 148.80021,14.8136011 C148.719513,15.0314567 148.791735,15.2762066 148.977978,15.4160307 L148.977978,15.4160307 C149.009877,15.4397305 149.044462,15.4596192 149.081023,15.4752881 C149.57264,15.6882881 149.82574,16.2342581 149.669525,16.7447631 C149.657346,16.7824824 149.64966,16.8214948 149.646626,16.8609987 L149.646626,16.8609987 C149.632596,17.092768 149.772772,17.3063204 149.991657,17.3866382 C150.210541,17.466956 150.456446,17.3950733 150.596931,17.2097055 L150.596931,17.2097055 C150.620742,17.1779565 150.640725,17.1435338 150.656468,17.1071447 C150.870473,16.6178384 151.419021,16.3659276 151.931937,16.5214085 C151.969834,16.5335302 152.009031,16.5411797 152.048721,16.5441997 L152.048721,16.5441997 C152.281585,16.5581636 152.496145,16.4186463 152.576842,16.2007907 C152.657539,15.9829351 152.585317,15.7381852 152.399074,15.5983611 L152.399074,15.5983611 C152.367175,15.5746613 152.33259,15.5547726 152.296029,15.5391037 L152.296029,15.5391037 Z" id="Path" fill="#FDD835" opacity="0.5"></path>
                <ellipse id="Oval" fill="#F55F44" opacity="0.5" cx="186.085652" cy="71.6717798" rx="1.72428745" ry="1.71618438"></ellipse>
                <ellipse id="Oval" fill="#F55F44" opacity="0.5" cx="52.8346407" cy="170.171191" rx="1.72428745" ry="1.71618438"></ellipse>
                <ellipse id="Oval" fill="#F55F44" opacity="0.5" cx="168.377929" cy="108.766889" rx="1.72428745" ry="1.71618438"></ellipse>
                <ellipse id="Oval" fill="#4D8AF0" opacity="0.5" cx="19.9541048" cy="21.959411" rx="1.72428745" ry="1.71618438"></ellipse>
                <ellipse id="Oval" fill="#47E6B1" opacity="0.5" cx="1.72428745" cy="68.7750064" rx="1.72428745" ry="1.71618438"></ellipse>
            </g>
        </g>
    </g>
</svg>